<svg width="377" height="119" version="1.1" xmlns="http://www.w3.org/2000/svg" desc="Created with imagetracer.js version 1.2.6" ><path fill="rgb(75,101,121)" stroke="rgb(75,101,121)" stroke-width="1" opacity="1" d="M 1.5 0 L 45 0.5 L 45 2.5 Q 46.1 5.8 43.5 5 L 42.5 8 L 42.5 6 L 37 5.5 L 43 4.5 L 35.5 4 L 31.5 6 L 28.5 5 L 21.5 4 L 19.5 5 L 15.5 4 L 14.5 5 L 2.5 5 L 0 4 L 1.5 0 Z " /><path fill="rgb(75,101,121)" stroke="rgb(75,101,121)" stroke-width="1" opacity="1" d="M 51 0 L 81 0.5 L 76 1.5 L 81.5 2 L 84.5 0 L 83.5 2 L 82 2.5 L 84.5 3 L 88.5 2 L 91.5 3 L 90.5 1 L 86 0.5 L 90.5 0 L 92.5 0 Q 103.4 -1.4 110.5 1 Q 112.3 -1.8 118.5 0 L 120.5 1 L 122.5 0 L 125.5 1 L 129.5 0 L 130.5 1 L 143.5 1 L 145.5 0 L 146.5 1 L 303.5 1 L 304.5 0 L 318.5 0 L 319.5 1 L 351 1.5 L 350.5 4 L 347.5 3 L 347 7 L 350 8.5 L 347 9 L 347 12 L 350 12.5 L 350 23.5 L 351 23.5 L 351 8.5 L 352 7.5 L 352 5.5 Q 351.3 1.8 353.5 1 L 377 0 L 377 25 L 355.5 25 L 355.5 24 Q 358.5 24.9 357 20.5 L 359 15.5 L 354 12.5 L 355 9.5 L 353.5 2 L 353 27 L 344 26 L 345 28.5 L 343.5 28 L 322.5 28 L 321.5 29 L 318 28 L 317.5 37 L 317 17.5 L 315.5 16 L 313.5 17 L 312 14 L 316 13 Q 317 9.2 314.5 8 L 273.5 8 L 272.5 7 L 271.5 8 L 166.5 8 L 165.5 7 L 144.5 7 L 141.5 8 L 140.5 7 L 124.5 7 L 122.5 8 L 119.5 7 L 118.5 8 L 109.5 8 L 107.5 8 L 98.5 8 L 97.5 7 L 94.5 8 L 91.5 7 L 88.5 8 L 86.5 8 L 83.5 7 L 79.5 8 L 77.5 8 Q 71.3 9.8 69.5 7 L 68.5 8 L 57.5 8 L 56 9.5 L 56 110.5 L 57 113.5 L 56.5 115 L 68.5 116 L 69.5 115 L 195.5 115 L 197.5 116 L 199.5 115 Q 201.3 117.8 207.5 116 L 208.5 115 L 310.5 115 L 311.5 117 L 57 117.5 L 309 118.5 L 55 119 Q 56.8 114.1 50.5 116 L 50.5 115 L 53 114.5 L 52.5 113 L 54 113.5 L 55 110.5 L 54 107.5 L 55 106.5 L 55 92.5 L 54 91.5 L 54 69.5 Q 56.3 68.2 55 63.5 L 54 61.5 Q 56.7 59.8 55 53.5 L 54 50.5 L 54 46.5 Q 52.5 39 55 35.5 L 54 34.5 L 54 20.5 L 54 18.5 L 54 9.5 L 53 8.5 L 55 4.5 L 53.5 4 L 48.5 11 L 48 6 Q 51 7.3 50 3.5 L 49.5 2 Q 52.1 2.7 51 0 Z M 53 1 L 55 3 L 57 2 L 59 3 L 60 2 L 74 2 L 53 1 Z M 271 3 L 266 4 L 264 4 L 257 5 L 264 6 L 266 6 L 272 7 L 273 4 L 277 5 L 274 6 L 277 7 Q 280 8 279 5 L 284 6 L 281 6 L 281 7 L 311 7 L 310 6 L 310 5 Q 313 4 312 7 L 316 7 L 316 5 L 316 3 L 271 3 Z M 66 4 L 66 5 L 68 5 L 66 4 Z M 71 4 L 71 5 L 73 5 L 71 4 Z M 76 4 L 76 5 L 79 5 L 76 4 Z M 81 4 L 81 5 L 92 5 L 81 4 Z M 97 4 L 97 5 L 100 5 L 97 4 Z M 107 4 L 107 5 L 111 5 L 107 4 Z M 169 4 L 169 5 L 178 5 L 169 4 Z M 327 4 L 327 5 L 329 5 L 327 4 Z M 329 6 L 329 9 L 333 11 L 336 10 L 340 11 L 340 6 L 329 6 Z M 345 8 L 344 11 L 345 11 L 345 8 Z M 329 17 L 329 22 L 332 20 L 333 21 L 337 21 Q 335 16 329 17 Z M 345 18 Q 342 19 344 21 L 342 22 Q 344 25 345 22 L 345 18 Z M 338 21 Q 335 25 340 24 L 338 21 Z M 319 25 L 321 27 Q 322 24 319 25 Z " /><path fill="rgb(75,101,121)" stroke="rgb(75,101,121)" stroke-width="1" opacity="1" d="M 0 6 L 2 6.5 L 0.5 13 L 0 6 Z " /><path fill="rgb(75,101,121)" stroke="rgb(75,101,121)" stroke-width="1" opacity="1" d="M 26.5 6 L 29 7.5 L 28.5 23 L 28 7 L 26.5 6 Z " /><path fill="rgb(75,101,121)" stroke="rgb(75,101,121)" stroke-width="1" opacity="1" d="M 35.5 6 L 33.5 9 L 35.5 6 Z " /><path fill="rgb(75,101,121)" stroke="rgb(75,101,121)" stroke-width="1" opacity="1" d="M 36.5 8 L 35.5 10 L 36.5 8 Z " /><path fill="rgb(75,101,121)" stroke="rgb(75,101,121)" stroke-width="1" opacity="1" d="M 5.5 10 L 10 11.5 L 9.5 13 L 14.5 12 L 23 17 L 24 25.5 L 23 25.5 L 22.5 23 Q 20.2 28.7 12.5 29 L 9.5 28 L 10.5 30 L 14 31 Q 13.3 34.4 16 35.5 L 14 36.5 L 14.5 35 L 11.5 37 L 11.5 38 Q 18.8 37.2 21 41.5 L 22 45.5 L 21 45.5 L 20.5 44 L 19 44.5 L 18 41 L 13.5 40 L 11.5 40 L 10 40.5 Q 12.3 41.8 9.5 43 L 6.5 44 Q 3.1 40.4 4 32.5 L 5 27.5 L 4 23.5 L 5.5 21 L 7.5 21 L 9 21.5 L 7.5 24 L 9.5 23 L 10.5 26 L 12.5 25 L 14.5 26 L 19.5 22 L 21 22.5 L 20.5 18 L 19 18.5 L 16.5 15 L 11.5 14 L 11.5 16 Q 10 13.5 8.5 17 L 6.5 18 Q 3.1 16.1 5.5 10 Z " /><path fill="rgb(75,101,121)" stroke="rgb(75,101,121)" stroke-width="1" opacity="1" d="M 33.5 10 L 34.5 12 L 33.5 10 Z " /><path fill="rgb(75,101,121)" stroke="rgb(75,101,121)" stroke-width="1" opacity="1" d="M 21.5 11 L 24 11.5 L 21.5 12 L 21.5 11 Z " /><path fill="rgb(75,101,121)" stroke="rgb(75,101,121)" stroke-width="1" opacity="1" d="M 37.5 13 Q 42.3 12.3 43 15.5 L 40.5 14 Q 36.5 14.8 37.5 13 Z " /><path fill="rgb(75,101,121)" stroke="rgb(75,101,121)" stroke-width="1" opacity="1" d="M 32.5 16 L 33 19.5 L 32 19.5 L 32.5 16 Z " /><path fill="rgb(75,101,121)" stroke="rgb(75,101,121)" stroke-width="1" opacity="1" d="M 36.5 21 L 35.5 23 L 36.5 21 Z " /><path fill="rgb(75,101,121)" stroke="rgb(75,101,121)" stroke-width="1" opacity="1" d="M 25.5 23 L 26 25.5 L 25 25.5 L 25.5 23 Z " /><path fill="rgb(75,101,121)" stroke="rgb(75,101,121)" stroke-width="1" opacity="1" d="M 28.5 24 L 29 33.5 L 28 33.5 L 28.5 24 Z " /><path fill="rgb(75,101,121)" stroke="rgb(75,101,121)" stroke-width="1" opacity="1" d="M 32.5 24 L 33 26.5 L 32 26.5 L 32.5 24 Z " /><path fill="rgb(75,101,121)" stroke="rgb(75,101,121)" stroke-width="1" opacity="1" d="M 36.5 24 L 37 27 L 35 26.5 L 36.5 24 Z " /><path fill="rgb(75,101,121)" stroke="rgb(75,101,121)" stroke-width="1" opacity="1" d="M 22.5 27 L 24 30.5 L 21 33.5 L 22.5 38 L 17 35 L 16 32.5 L 20.5 30 L 23 31 L 22.5 27 Z " /><path fill="rgb(75,101,121)" stroke="rgb(75,101,121)" stroke-width="1" opacity="1" d="M 38.5 27 L 39.5 29 L 38.5 27 Z " /><path fill="rgb(75,101,121)" stroke="rgb(75,101,121)" stroke-width="1" opacity="1" d="M 347.5 28 Q 352 27 353 29.5 Q 351.8 33.3 355.5 32 L 358.5 34 L 372 34 L 372 44.5 L 373 45.5 L 373 105.5 L 372 105.5 L 372 45.5 L 371 44.5 L 371 35 L 369 35.5 L 370 40.5 L 370 42.5 L 369.5 45 Q 368.3 42.8 367 45.5 L 366.5 80 L 366 45 L 361 45.5 L 361 106 L 363 106.5 L 361 107.5 L 365 108 L 365 111 L 356 111 L 355.5 109 L 352.5 113 L 351 112.5 Q 351.8 114.8 349.5 114 L 349.5 115 L 352.5 114 L 353 116 L 351 116.5 L 353.5 118 L 368.5 118 L 368.5 117 L 360 116.5 L 368 114.5 L 364 113.5 Q 371.2 114.2 374 110.5 L 374 100.5 L 375 99.5 L 374 98.5 L 374 82.5 L 375 80.5 L 374 79.5 L 374 62.5 L 374 60.5 L 375 50.5 L 374 48.5 L 374 44.5 L 373 35.5 L 373 33.5 L 372.5 32 L 368.5 32 L 365.5 33 L 358 31.5 L 377 31 L 377 39.5 L 376 40.5 L 376 108.5 L 377 109.5 L 377 119 L 352.5 119 L 351.5 118 L 349.5 119 L 349.5 118 L 351 117.5 L 349 117 L 348 110 L 353 110 L 353 108.5 L 351 108.5 Q 353.3 103.8 355.5 108 L 361 106.5 L 359 103.5 L 359 88.5 L 360 87.5 L 360 45 L 357 44.5 L 358 41.5 L 357 38 Q 354.3 36.9 355 39.5 L 355.5 41 L 353 42.5 L 352.5 45 L 352 35.5 L 350.5 34 L 349 35.5 L 348.5 42 L 347 38.5 L 347 36.5 L 348 34.5 L 346 29.5 L 347.5 28 Z M 354 33 L 355 36 L 354 35 L 353 37 L 357 36 Q 359 37 358 34 L 354 33 Z " /><path fill="rgb(75,101,121)" stroke="rgb(75,101,121)" stroke-width="1" opacity="1" d="M 41.5 32 L 43 32.5 L 41 33 Q 42 36.8 39.5 38 L 33 38.5 L 36 39 Q 37.1 41.7 34.5 41 Q 30 39 33.5 37 L 40 37 L 40 33.5 L 41.5 32 Z " /><path fill="rgb(75,101,121)" stroke="rgb(75,101,121)" stroke-width="1" opacity="1" d="M 48.5 32 L 49 34.5 L 48 34.5 L 48.5 32 Z " /><path fill="rgb(75,101,121)" stroke="rgb(75,101,121)" stroke-width="1" opacity="1" d="M 36.5 33 L 38 35.5 L 37 35.5 L 36.5 33 Z " /><path fill="rgb(75,101,121)" stroke="rgb(75,101,121)" stroke-width="1" opacity="1" d="M 28.5 39 L 29 41.5 L 28 41.5 L 28.5 39 Z " /><path fill="rgb(75,101,121)" stroke="rgb(75,101,121)" stroke-width="1" opacity="1" d="M 40 39 L 43 39.5 L 39.5 42 L 40 40.5 L 40 39 Z " /><path fill="rgb(75,101,121)" stroke="rgb(75,101,121)" stroke-width="1" opacity="1" d="M 48.5 39 L 49 41.5 L 48 41.5 L 48.5 39 Z " /><path fill="rgb(75,101,121)" stroke="rgb(75,101,121)" stroke-width="1" opacity="1" d="M 32.5 42 L 33 44.5 L 32 44.5 L 32.5 42 Z " /><path fill="rgb(75,101,121)" stroke="rgb(75,101,121)" stroke-width="1" opacity="1" d="M 51.5 42 L 52 45.5 L 51 45.5 L 51.5 42 Z " /><path fill="rgb(75,101,121)" stroke="rgb(75,101,121)" stroke-width="1" opacity="1" d="M 40.5 43 L 41 44.5 L 37.5 46 L 37.5 45 Q 41 46 40.5 43 Z " /><path fill="rgb(75,101,121)" stroke="rgb(75,101,121)" stroke-width="1" opacity="1" d="M 48.5 43 L 49 48.5 L 48 48.5 L 48.5 43 Z " /><path fill="rgb(75,101,121)" stroke="rgb(75,101,121)" stroke-width="1" opacity="1" d="M 8.5 44 L 9 45.5 L 9 47.5 L 11.5 52 L 16.5 51 L 19.5 48 L 21 48.5 L 21.5 47 L 22 49.5 Q 19.8 54.8 12.5 55 L 9.5 54 L 10.5 56 Q 13.1 55.2 12 58.5 L 12 60.5 L 9 64.5 L 10.5 65 L 15.5 64 L 21 67.5 L 22 74.5 L 17.5 80 L 13.5 81 L 8.5 79 L 9.5 81 L 14 83 Q 15.1 85.7 12.5 85 L 12.5 86 L 14 86.5 Q 12.3 90.7 10.5 88 Q 6.8 87.3 6 89.5 L 6.5 91 Q 3.9 90.2 5 93.5 L 4 93.5 L 4 74.5 L 6.5 72 Q 8.8 76.7 14.5 78 L 19.5 74 L 21 74.5 L 21 71 Q 18.3 72.1 19 69.5 L 16.5 67 L 11.5 66 L 9.5 69 L 6.5 67 L 6 68.5 L 6.5 70 L 4 69 L 4 53.5 L 5 52.5 L 5 50.5 Q 3.5 46.1 6.5 47 L 8.5 44 Z " /><path fill="rgb(75,101,121)" stroke="rgb(75,101,121)" stroke-width="1" opacity="1" d="M 28.5 44 L 29 49.5 L 28 49.5 L 28.5 44 Z " /><path fill="rgb(75,101,121)" stroke="rgb(75,101,121)" stroke-width="1" opacity="1" d="M 0.5 45 L 1 47.5 L 0 47.5 L 0.5 45 Z " /><path fill="rgb(75,101,121)" stroke="rgb(75,101,121)" stroke-width="1" opacity="1" d="M 3.5 45 L 4 48.5 L 3 48.5 L 3.5 45 Z " /><path fill="rgb(75,101,121)" stroke="rgb(75,101,121)" stroke-width="1" opacity="1" d="M 35.5 47 L 36 49 L 34 48.5 L 35.5 47 Z " /><path fill="rgb(75,101,121)" stroke="rgb(75,101,121)" stroke-width="1" opacity="1" d="M 38 47 Q 41.8 45.5 41 48.5 L 38 48.5 L 38 47 Z " /><path fill="rgb(75,101,121)" stroke="rgb(75,101,121)" stroke-width="1" opacity="1" d="M 51.5 49 L 52 51.5 L 51 51.5 L 51.5 49 Z " /><path fill="rgb(75,101,121)" stroke="rgb(75,101,121)" stroke-width="1" opacity="1" d="M 32.5 50 L 34.5 55 L 37.5 54 L 36.5 56 Q 32.5 56.5 32 53.5 L 32.5 50 Z " /><path fill="rgb(75,101,121)" stroke="rgb(75,101,121)" stroke-width="1" opacity="1" d="M 36.5 50 L 37 52.5 L 36 52.5 L 36.5 50 Z " /><path fill="rgb(75,101,121)" stroke="rgb(75,101,121)" stroke-width="1" opacity="1" d="M 39.5 50 L 41 52.5 L 40 52.5 L 39.5 50 Z " /><path fill="rgb(75,101,121)" stroke="rgb(75,101,121)" stroke-width="1" opacity="1" d="M 370.5 50 L 371 55.5 L 370 55.5 L 370.5 50 Z " /><path fill="rgb(75,101,121)" stroke="rgb(75,101,121)" stroke-width="1" opacity="1" d="M 25.5 52 L 26 65.5 L 25 65.5 L 25.5 52 Z " /><path fill="rgb(75,101,121)" stroke="rgb(75,101,121)" stroke-width="1" opacity="1" d="M 42.5 53 L 41.5 55 L 42.5 53 Z " /><path fill="rgb(75,101,121)" stroke="rgb(75,101,121)" stroke-width="1" opacity="1" d="M 21.5 54 Q 24.1 53.3 23 56 Q 20 54.8 21 58.5 L 22 60.5 L 21.5 62 Q 23.8 61.3 23 63.5 L 20.5 62 L 17 59.5 L 18.5 56 L 21.5 54 Z " /><path fill="rgb(75,101,121)" stroke="rgb(75,101,121)" stroke-width="1" opacity="1" d="M 51.5 55 L 52 111.5 L 51 111.5 L 50 107.5 L 51 106.5 L 51.5 55 Z " /><path fill="rgb(75,101,121)" stroke="rgb(75,101,121)" stroke-width="1" opacity="1" d="M 370.5 58 L 371 100.5 L 370 100.5 L 370.5 58 Z " /><path fill="rgb(75,101,121)" stroke="rgb(75,101,121)" stroke-width="1" opacity="1" d="M 41.5 59 L 42.5 61 L 41.5 59 Z " /><path fill="rgb(75,101,121)" stroke="rgb(75,101,121)" stroke-width="1" opacity="1" d="M 32.5 61 L 33 63.5 L 32 63.5 L 32.5 61 Z " /><path fill="rgb(75,101,121)" stroke="rgb(75,101,121)" stroke-width="1" opacity="1" d="M 42.5 64 L 41.5 66 L 42.5 64 Z " /><path fill="rgb(75,101,121)" stroke="rgb(75,101,121)" stroke-width="1" opacity="1" d="M 36.5 66 Q 40.9 64.5 40 67.5 L 38.5 67 L 34.5 68 L 34.5 67 L 36.5 66 Z " /><path fill="rgb(75,101,121)" stroke="rgb(75,101,121)" stroke-width="1" opacity="1" d="M 25.5 67 L 26 70.5 L 25 70.5 L 25.5 67 Z " /><path fill="rgb(75,101,121)" stroke="rgb(75,101,121)" stroke-width="1" opacity="1" d="M 41.5 67 Q 44 68 43 72.5 L 41 73.5 L 42 68.5 L 41.5 67 Z " /><path fill="rgb(75,101,121)" stroke="rgb(75,101,121)" stroke-width="1" opacity="1" d="M 25.5 72 L 26 76.5 L 25 76.5 L 25.5 72 Z " /><path fill="rgb(75,101,121)" stroke="rgb(75,101,121)" stroke-width="1" opacity="1" d="M 36.5 72 L 39 72.5 L 36.5 73 L 36.5 72 Z " /><path fill="rgb(75,101,121)" stroke="rgb(75,101,121)" stroke-width="1" opacity="1" d="M 33.5 73 L 40 74 L 39.5 76 L 34.5 75 L 33.5 73 Z " /><path fill="rgb(75,101,121)" stroke="rgb(75,101,121)" stroke-width="1" opacity="1" d="M 25.5 78 L 26 82.5 L 25 82.5 L 25.5 78 Z " /><path fill="rgb(75,101,121)" stroke="rgb(75,101,121)" stroke-width="1" opacity="1" d="M 42.5 78 L 43 79.5 L 40 81.5 L 42.5 78 Z " /><path fill="rgb(75,101,121)" stroke="rgb(75,101,121)" stroke-width="1" opacity="1" d="M 23.5 79 L 24 81.5 Q 24.8 85.3 22.5 86 Q 18.8 86.8 18 84.5 Q 16.9 81.2 19.5 82 L 23.5 79 Z " /><path fill="rgb(75,101,121)" stroke="rgb(75,101,121)" stroke-width="1" opacity="1" d="M 33.5 80 L 38 80.5 L 33 81.5 L 39 82.5 L 33.5 83 Q 30.5 81.5 33.5 80 Z " /><path fill="rgb(75,101,121)" stroke="rgb(75,101,121)" stroke-width="1" opacity="1" d="M 36.5 86 L 40 86.5 L 36.5 87 L 36.5 86 Z " /><path fill="rgb(75,101,121)" stroke="rgb(75,101,121)" stroke-width="1" opacity="1" d="M 32.5 89 L 33 94 L 41.5 94 L 42.5 93 L 43 95.5 L 44 97.5 L 41.5 98 L 42 96.5 Q 42.8 93.9 39.5 95 L 37.5 95 Q 33 96 32 93.5 L 32.5 89 Z " /><path fill="rgb(75,101,121)" stroke="rgb(75,101,121)" stroke-width="1" opacity="1" d="M 8 90 L 22 90 L 22 95.5 Q 26 97.5 22 99.5 L 22 106 L 16.5 106 L 15.5 107 L 5 107 L 6.5 104 L 8.5 104 L 15.5 103 L 17.5 104 L 18.5 101 Q 19.7 103.3 21 100.5 L 20.5 92 L 19.5 96 L 17.5 93 L 13.5 92 L 12 92.5 L 11.5 91 L 10.5 94 L 8 93.5 L 8 90 Z M 21 102 L 19 104 L 21 104 L 21 102 Z " /><path fill="rgb(75,101,121)" stroke="rgb(75,101,121)" stroke-width="1" opacity="1" d="M 25.5 90 L 26 94.5 L 25 94.5 L 25.5 90 Z " /><path fill="rgb(75,101,121)" stroke="rgb(75,101,121)" stroke-width="1" opacity="1" d="M 40.5 90 L 41 91.5 Q 40 94 35.5 93 L 35.5 92 Q 40.9 93.7 40.5 90 Z " /><path fill="rgb(75,101,121)" stroke="rgb(75,101,121)" stroke-width="1" opacity="1" d="M 317.5 91 L 318 99.5 L 319 100.5 L 319 114.5 L 320 118 L 343.5 118 L 347.5 116 L 347 117.5 L 346.5 119 L 318.5 119 L 316 118 L 317 113.5 L 317.5 91 Z " /><path fill="rgb(75,101,121)" stroke="rgb(75,101,121)" stroke-width="1" opacity="1" d="M 8.5 96 L 9 99.5 L 8 99.5 L 8.5 96 Z " /><path fill="rgb(75,101,121)" stroke="rgb(75,101,121)" stroke-width="1" opacity="1" d="M 37.5 97 L 36.5 99 L 37.5 97 Z " /><path fill="rgb(75,101,121)" stroke="rgb(75,101,121)" stroke-width="1" opacity="1" d="M 365.5 98 L 366 105.5 L 365 105.5 L 365.5 98 Z " /><path fill="rgb(75,101,121)" stroke="rgb(75,101,121)" stroke-width="1" opacity="1" d="M 33.5 100 L 34.5 103 L 42 101.5 L 41.5 100 Q 43.8 99.3 43 101.5 Q 41.7 105 37 104 Q 36.3 107.4 39 108.5 L 35.5 109 L 35.5 108 L 37 107.5 L 36 104 L 32 101.5 L 33.5 100 Z " /><path fill="rgb(75,101,121)" stroke="rgb(75,101,121)" stroke-width="1" opacity="1" d="M 48.5 101 L 49 115.5 L 48 115.5 L 48.5 101 Z " /><path fill="rgb(75,101,121)" stroke="rgb(75,101,121)" stroke-width="1" opacity="1" d="M 39.5 105 L 40.5 107 L 39.5 105 Z " /><path fill="rgb(75,101,121)" stroke="rgb(75,101,121)" stroke-width="1" opacity="1" d="M 370.5 105 L 370 106.5 Q 368.5 110.9 371.5 110 L 371.5 111 Q 366.3 112.8 368 107.5 L 370.5 105 Z " /><path fill="rgb(75,101,121)" stroke="rgb(75,101,121)" stroke-width="1" opacity="1" d="M 32.5 108 L 36 110.5 L 34.5 111 L 32.5 108 Z " /><path fill="rgb(75,101,121)" stroke="rgb(75,101,121)" stroke-width="1" opacity="1" d="M 42.5 108 L 40.5 111 L 38 110.5 L 42.5 108 Z " /><path fill="rgb(75,101,121)" stroke="rgb(75,101,121)" stroke-width="1" opacity="1" d="M 14.5 111 L 27 111.5 L 14.5 112 L 14.5 111 Z " /><path fill="rgb(75,101,121)" stroke="rgb(75,101,121)" stroke-width="1" opacity="1" d="M 2.5 113 L 7.5 114 L 8.5 113 L 24 113 Q 25.3 116 21.5 115 L 20.5 117 Q 26 115.5 27.5 118 L 30.5 117 L 33 117.5 L 32.5 119 L 1 119 Q -0.3 114.4 2.5 113 Z " /><path fill="rgb(75,101,121)" stroke="rgb(75,101,121)" stroke-width="1" opacity="1" d="M 360.5 113 L 363 113.5 L 360.5 114 L 360.5 113 Z " /><path fill="rgb(75,101,121)" stroke="rgb(75,101,121)" stroke-width="1" opacity="1" d="M 40.5 117 L 42.5 118 Q 43.8 115.8 45 118.5 L 42.5 119 Q 38.5 120 40.5 117 Z " /><path fill="rgb(13,11,17)" stroke="rgb(13,11,17)" stroke-width="1" opacity="1" d="M 145.5 8 L 151 8.5 L 145.5 9 L 145.5 8 Z " /><path fill="rgb(13,11,17)" stroke="rgb(13,11,17)" stroke-width="1" opacity="1" d="M 161.5 8 L 166 8.5 L 161.5 9 L 161.5 8 Z " /><path fill="rgb(13,11,17)" stroke="rgb(13,11,17)" stroke-width="1" opacity="1" d="M 264.5 9 L 279 9.5 L 264.5 10 L 264.5 9 Z " /><path fill="rgb(13,11,17)" stroke="rgb(13,11,17)" stroke-width="1" opacity="1" d="M 232.5 13 L 238 13.5 L 232.5 14 L 232.5 13 Z " /><path fill="rgb(13,11,17)" stroke="rgb(13,11,17)" stroke-width="1" opacity="1" d="M 87.5 14 L 93 16.5 L 88.5 18 L 86 16.5 L 88 15.5 L 87.5 14 Z " /><path fill="rgb(13,11,17)" stroke="rgb(13,11,17)" stroke-width="1" opacity="1" d="M 194.5 14 Q 196.8 13.3 196 15.5 L 194.5 14 Z " /><path fill="rgb(13,11,17)" stroke="rgb(13,11,17)" stroke-width="1" opacity="1" d="M 276.5 15 L 288 15.5 L 284 16 L 285.5 20 Q 290.8 21.3 292 18.5 Q 290.9 15.2 293.5 16 Q 294.7 13.7 299.5 15 L 299.5 16 L 298 16.5 Q 299.4 19.3 304 18 Q 305 22.3 302 23.5 L 304.5 27 L 305 25 L 309 22.5 L 309.5 21 L 311 24.5 Q 309.6 31.9 313 34.5 L 310.5 35 L 309 31 Q 306 32.3 307 28.5 Q 305.5 25.5 304 28.5 L 305 32 Q 308.3 30.9 307 35 Q 304.3 36.1 305 33.5 L 304 33.5 Q 304.5 36.5 297.5 35 L 297.5 34 L 300 32.5 L 288 32 L 288.5 34 L 296 34 L 296 37 L 288.5 37 L 288 40 L 280 40 L 280 48 L 284 48 L 284 55.5 L 288.5 60 L 295.5 62 Q 296.8 59.8 298 62.5 L 297 64.5 L 302 68.5 L 303.5 73 L 306.5 71 L 307 73 L 311 72.5 L 309 72 L 310.5 69 Q 313.1 68.2 312 71.5 L 313.5 71 L 315 71.5 L 312 73.5 Q 310.3 79.3 314 78 L 314.5 76 L 315 79.5 L 313.5 79 L 311 80.5 Q 309.1 85.9 312.5 85 L 312 86.5 Q 313.5 98 310 104.5 L 311 106.5 L 310 108.5 Q 312.3 109.8 309.5 111 L 308 106 Q 305.3 107.1 306 104.5 L 305 104.5 L 304.5 106 L 304 104 Q 299.9 105.7 301 101.5 L 298 94 Q 295.3 92.9 296 95.5 L 295 95.5 L 295 88.5 L 296.5 88 L 296 86.5 L 299 79.5 L 298 75.5 L 301 74 L 297.5 69 L 288.5 69 L 287.5 67 L 280 67 L 279.5 69 L 272 69 L 272 66 L 264.5 66 L 263.5 64 L 256 64 L 256 66 L 248.5 66 L 247.5 68 L 240.5 68 L 239.5 67 L 224.5 67 L 214.5 62 L 208.5 61 L 206.5 62 L 204 61 Q 205.1 58.3 202.5 59 L 197.5 58 L 189 50.5 L 188 47.5 L 189 45 Q 194 45.8 196 42.5 Q 199.6 39.4 198 32 Q 201.1 31.3 200.5 34 L 208 34 L 208.5 32 L 223.5 32 L 224.5 31 L 234 31 L 234 40 L 240 40 L 240 43 L 247.5 43 L 248 45 L 250.5 45 Q 254.3 40.8 263.5 42 L 266.5 43 L 268 40 L 272 40 L 272 32 L 269 32 L 269 24.5 L 266.5 20 Q 261.9 21.2 264 16 L 275.5 16 L 276.5 15 Z M 297 20 L 296 23 L 297 23 L 297 20 Z M 300 21 L 300 23 L 302 22 L 300 21 Z M 296 27 L 296 29 L 298 28 L 296 27 Z M 275 40 L 276 45 L 279 41 L 275 40 Z M 277 48 L 277 56 L 280 56 L 280 48 L 277 48 Z M 224 51 L 224 64 L 240 64 Q 240 64 240 60 L 243 56 L 233 56 L 232 51 L 224 51 Z M 208 53 L 208 56 L 216 57 L 216 53 L 208 53 Z M 209 57 L 208 59 L 214 59 L 209 57 Z M 305 75 L 305 79 Q 309 80 310 78 L 310 75 L 305 75 Z M 305 80 Q 306 83 303 82 L 302 85 Q 303 88 300 87 L 300 88 Q 303 87 302 90 L 300 91 L 304 95 L 305 92 L 306 95 L 306 97 L 306 104 L 308 104 L 307 100 L 308 98 Q 307 95 310 96 L 311 93 Q 313 87 309 88 L 310 84 L 307 83 Q 308 79 305 80 Z " /><path fill="rgb(13,11,17)" stroke="rgb(13,11,17)" stroke-width="1" opacity="1" d="M 309.5 18 L 310.5 20 Q 307.7 20.7 309.5 18 Z " /><path fill="rgb(13,11,17)" stroke="rgb(13,11,17)" stroke-width="1" opacity="1" d="M 88.5 20 L 92 21.5 L 91 26.5 Q 92.2 29.8 96 29 L 96.5 31 L 100.5 29 L 100 30.5 L 101.5 33 L 104 32.5 L 103.5 31 L 111.5 40 L 112 30 Q 116.3 31 115.5 28 L 122.5 28 L 124 25 Q 129.2 22.9 128 27.5 L 126.5 30 L 128 30.5 L 128 40 L 135.5 40 L 136.5 42 L 144 42 L 144 48 L 147.5 48 L 156 53.5 L 156 56 L 158 56.5 L 158 64 L 156 64.5 L 157 68 L 154.5 69 L 141.5 69 Q 138 65 128.5 67 L 127.5 68 L 119.5 68 L 118 69.5 Q 119.1 72.8 116.5 72 L 115 73.5 L 114 80 Q 110.9 79.3 111.5 82 L 101.5 82 L 96 80 L 95.5 78 L 88.5 78 L 87.5 77 L 71.5 77 L 70 75.5 Q 69.3 72.9 72 74 L 72 72 L 76 72 L 76 69.5 L 80 68 Q 78 62 84 64 L 84 56.5 L 80.5 50 L 79.5 51 L 76.5 48 L 67 48 L 67 41.5 Q 64.5 40 68 38.5 L 69.5 36 L 71.5 35 L 72 40 L 80 40 L 80 32 L 82.5 32 L 80 28.5 Q 79 24 81.5 23 L 88.5 20 Z M 88 32 L 88 40 L 93 40 L 93 48 L 100 48 L 100 41 L 99 39 L 96 39 L 96 32 L 88 32 Z M 120 40 L 120 48 L 112 48 L 112 62 L 106 62 L 107 64 L 128 64 L 128 49 L 126 48 L 126 40 L 120 40 Z M 143 48 L 144 50 Q 145 47 143 48 Z M 100 56 L 100 59 L 106 62 L 106 56 L 100 56 Z " /><path fill="rgb(13,11,17)" stroke="rgb(13,11,17)" stroke-width="1" opacity="1" d="M 64.5 22 L 65.5 24 Q 62.7 24.7 64.5 22 Z " /><path fill="rgb(13,11,17)" stroke="rgb(13,11,17)" stroke-width="1" opacity="1" d="M 224 24 L 226 24.5 L 224 25.5 L 224 24 Z " /><path fill="rgb(13,11,17)" stroke="rgb(13,11,17)" stroke-width="1" opacity="1" d="M 57.5 28 L 58 31.5 L 57 31.5 L 57.5 28 Z " /><path fill="rgb(13,11,17)" stroke="rgb(13,11,17)" stroke-width="1" opacity="1" d="M 332.5 30 L 335 30.5 Q 332.9 33.8 332.5 30 Z " /><path fill="rgb(13,11,17)" stroke="rgb(13,11,17)" stroke-width="1" opacity="1" d="M 321.5 31 L 325 32 L 325.5 37 L 326 34 L 328.5 35 L 329.5 33 L 331 36.5 L 330 38.5 L 330 40.5 Q 328.7 44.7 333.5 43 L 335.5 46 L 330 48 L 333 54 L 327.5 55 L 326 54.5 Q 325.4 57.3 331.5 56 L 333 59 L 344 60 L 346 56 L 349.5 56 L 352 54.5 Q 352.7 57.1 350 56 L 350 58 L 352 58 L 352 64 L 350 64.5 L 350 80 L 352 80.5 L 352 94 Q 346 92 348 98 Q 353.2 95.9 352 100.5 L 352 102.5 L 351.5 104 L 344 104 L 344 106.5 L 346 106.5 L 342 109 L 341.5 107 L 337.5 109 L 334 102 Q 330.2 101 329 103.5 L 328.5 105 L 328 96 Q 324.3 94.7 326 100.5 L 327 103.5 L 324.5 110 L 323.5 107 L 323 112.5 L 324.5 112 L 326 112.5 L 323.5 114 L 322 113.5 L 321.5 116 Q 318.3 114.3 322 112.5 L 322 104.5 Q 324.7 102.2 324 96.5 L 322.5 94 L 321.5 102 L 321 88.5 L 322 88.5 Q 321 92.3 324 91 L 322.5 85 L 321 85.5 L 321 46.5 L 322 42.5 Q 319.8 41.2 321 36.5 L 324 35.5 Q 324.8 33.3 322.5 34 L 321 34.5 L 321 32.5 L 321.5 31 Z M 325 54 L 324 59 L 326 58 L 325 54 Z M 346 62 Q 345 66 350 64 Q 351 60 346 62 Z M 326 82 L 324 85 L 325 88 L 326 85 L 326 82 Z M 327 91 L 326 95 L 327 95 L 327 91 Z " /><path fill="rgb(13,11,17)" stroke="rgb(13,11,17)" stroke-width="1" opacity="1" d="M 314.5 33 L 315 37.5 L 314 37.5 L 314.5 33 Z " /><path fill="rgb(13,11,17)" stroke="rgb(13,11,17)" stroke-width="1" opacity="1" d="M 334 35 Q 337.8 34 339 36.5 L 337.5 39 Q 331.8 40.6 334 35 Z " /><path fill="rgb(13,11,17)" stroke="rgb(13,11,17)" stroke-width="1" opacity="1" d="M 57.5 37 L 58 39.5 L 57 39.5 L 57.5 37 Z " /><path fill="rgb(13,11,17)" stroke="rgb(13,11,17)" stroke-width="1" opacity="1" d="M 319.5 40 L 320 53.5 L 319 53.5 L 319.5 40 Z " /><path fill="rgb(13,11,17)" stroke="rgb(13,11,17)" stroke-width="1" opacity="1" d="M 314.5 41 L 312.5 44 L 314.5 41 Z " /><path fill="rgb(13,11,17)" stroke="rgb(13,11,17)" stroke-width="1" opacity="1" d="M 310.5 43 L 311 46 L 314 47.5 L 312.5 47 Q 307.8 48.2 310.5 43 Z " /><path fill="rgb(13,11,17)" stroke="rgb(13,11,17)" stroke-width="1" opacity="1" d="M 348.5 45 L 350 48 L 348 47.5 L 348.5 45 Z " /><path fill="rgb(13,11,17)" stroke="rgb(13,11,17)" stroke-width="1" opacity="1" d="M 310 48 L 312 48.5 L 311 53 Q 316.6 51.1 315 56 L 312.5 55 L 311 55.5 L 309 51.5 L 310 48 Z " /><path fill="rgb(13,11,17)" stroke="rgb(13,11,17)" stroke-width="1" opacity="1" d="M 350 50 Q 353.3 48.9 352 53 Q 348.7 54.1 350 50 Z " /><path fill="rgb(13,11,17)" stroke="rgb(13,11,17)" stroke-width="1" opacity="1" d="M 173 56 Q 177.1 54.7 176 58 Q 171.9 59.3 173 56 Z " /><path fill="rgb(13,11,17)" stroke="rgb(13,11,17)" stroke-width="1" opacity="1" d="M 319.5 56 L 320 59.5 L 319 59.5 L 319.5 56 Z " /><path fill="rgb(13,11,17)" stroke="rgb(13,11,17)" stroke-width="1" opacity="1" d="M 312.5 59 L 315 60.5 L 313.5 61 L 312.5 59 Z " /><path fill="rgb(13,11,17)" stroke="rgb(13,11,17)" stroke-width="1" opacity="1" d="M 63.5 64 L 64 71.5 L 63 71.5 L 63.5 64 Z " /><path fill="rgb(13,11,17)" stroke="rgb(13,11,17)" stroke-width="1" opacity="1" d="M 310.5 64 L 314 65.5 L 312.5 66 L 310.5 64 Z " /><path fill="rgb(13,11,17)" stroke="rgb(13,11,17)" stroke-width="1" opacity="1" d="M 62.5 79 L 63.5 81 Q 60.7 81.7 62.5 79 Z " /><path fill="rgb(13,11,17)" stroke="rgb(13,11,17)" stroke-width="1" opacity="1" d="M 315.5 92 L 316 94.5 L 315 94.5 L 315.5 92 Z " /><path fill="rgb(13,11,17)" stroke="rgb(13,11,17)" stroke-width="1" opacity="1" d="M 368.5 93 L 369 95.5 L 368 95.5 L 368.5 93 Z " /><path fill="rgb(13,11,17)" stroke="rgb(13,11,17)" stroke-width="1" opacity="1" d="M 368.5 99 L 369 101.5 L 368 101.5 L 368.5 99 Z " /><path fill="rgb(13,11,17)" stroke="rgb(13,11,17)" stroke-width="1" opacity="1" d="M 315.5 104 L 316 106.5 L 315 106.5 L 315.5 104 Z " /><path fill="rgb(13,11,17)" stroke="rgb(13,11,17)" stroke-width="1" opacity="1" d="M 315.5 109 L 316 111.5 L 315 111.5 L 315.5 109 Z " /><path fill="rgb(13,11,17)" stroke="rgb(13,11,17)" stroke-width="1" opacity="1" d="M 331.5 109 L 335 110 L 336 112.5 L 330.5 113 L 329 110 L 331.5 109 Z " /><path fill="rgb(13,11,17)" stroke="rgb(13,11,17)" stroke-width="1" opacity="1" d="M 327.5 113 L 331 114 Q 332.3 117 328.5 116 L 327.5 113 Z " /><path fill="rgb(13,11,17)" stroke="rgb(13,11,17)" stroke-width="1" opacity="1" d="M 335.5 114 L 338 115.5 L 332.5 116 L 332.5 115 L 335.5 114 Z " /><path fill="rgb(31,55,77)" stroke="rgb(31,55,77)" stroke-width="1" opacity="1" d="M 45.5 0 L 46 10.5 L 45 13.5 L 46 16.5 L 45 20.5 L 46 23.5 L 45 27.5 L 46 30.5 L 45 32.5 L 45.5 34 L 44 33.5 L 43.5 37 L 43 31 Q 40.3 29.9 41 32.5 L 38.5 36 L 37.5 34 L 37 36 L 33 36 L 33 37.5 L 32 40.5 L 31 43.5 L 33.5 48 L 35 47.5 L 31 50 Q 30 55.6 34.5 57 L 45.5 53 L 45 56.5 L 46 59.5 L 45 62.5 L 46 65.5 L 46 87.5 L 46 89.5 L 45 92.5 L 45 94.5 L 46 96.5 L 45 99.5 L 46 103.5 L 45 106.5 L 46 111.5 L 45 114.5 L 46 118 L 50 118.5 L 45.5 119 L 42.5 118 L 40.5 117 L 40 119 L 33.5 119 L 33 117.5 L 30.5 117 L 27.5 118 L 20 116.5 L 24 115 L 24 113 Q 27.7 114.5 27 111.5 L 29 108.5 L 29 106.5 L 28 101.5 L 29 101.5 L 29.5 105 L 30 99.5 L 28 99.5 L 28 68.5 L 29 67.5 L 28 66.5 L 28 50.5 L 30 50.5 L 30 7.5 L 28.5 7 L 24.5 5 L 20.5 6 L 21.5 4 Q 27.5 3 29.5 6 L 35.5 4 Q 37.8 3.3 37 5.5 Q 35 3.8 33 7.5 L 34 14.5 L 31 19.5 L 33 20 L 33.5 22 L 35.5 21 L 35.5 22 L 31 24 Q 29.5 27.7 32.5 27 L 34.5 30 L 36.5 29 L 38.5 29 Q 42.3 29.8 43 27.5 L 43 11.5 L 41 11 L 41 9.5 Q 46.2 7.2 42.5 5 L 40 4.5 L 42.5 4 L 45 5 L 44 1.5 L 45.5 0 Z M 45 16 L 44 20 L 45 20 L 45 16 Z M 45 24 L 44 27 L 45 27 L 45 24 Z M 42 58 L 40 59 Q 37 60 39 62 Q 40 64 37 63 L 35 64 L 36 59 L 31 61 Q 29 65 33 64 L 34 68 L 31 69 Q 29 73 33 72 L 32 74 Q 30 80 38 77 L 37 79 L 35 78 L 33 81 L 33 83 Q 32 86 40 84 L 39 83 L 41 83 L 43 80 L 45 80 Q 46 77 42 78 Q 41 73 45 71 Q 46 68 43 69 L 44 64 L 43 62 Q 46 60 42 58 Z M 36 85 L 36 87 L 35 86 L 31 91 L 32 95 L 32 97 L 36 97 L 36 98 Q 32 97 33 101 L 33 103 L 31 106 Q 31 110 35 112 L 43 111 L 42 110 L 44 109 L 43 106 L 42 103 L 43 99 L 40 99 L 44 98 L 43 95 L 44 93 L 44 91 Q 45 88 43 89 L 43 88 L 40 87 Q 41 83 36 85 Z M 30 93 L 29 96 L 30 96 L 30 93 Z " /><path fill="rgb(31,55,77)" stroke="rgb(31,55,77)" stroke-width="1" opacity="1" d="M 50.5 0 L 51 2 L 49 1.5 L 50.5 0 Z " /><path fill="rgb(31,55,77)" stroke="rgb(31,55,77)" stroke-width="1" opacity="1" d="M 81.5 0 L 83 0.5 Q 81.8 3.3 76.5 2 L 76.5 1 L 81.5 0 Z " /><path fill="rgb(31,55,77)" stroke="rgb(31,55,77)" stroke-width="1" opacity="1" d="M 85.5 0 L 90.5 1 L 92 0.5 Q 90.5 3.5 84.5 2 L 85.5 0 Z " /><path fill="rgb(31,55,77)" stroke="rgb(31,55,77)" stroke-width="1" opacity="1" d="M 107.5 0 L 111 0.5 L 107.5 1 L 107.5 0 Z " /><path fill="rgb(31,55,77)" stroke="rgb(31,55,77)" stroke-width="1" opacity="1" d="M 123.5 0 L 126 0.5 L 123.5 1 L 123.5 0 Z " /><path fill="rgb(31,55,77)" stroke="rgb(31,55,77)" stroke-width="1" opacity="1" d="M 130.5 0 L 144 0.5 L 130.5 1 L 130.5 0 Z " /><path fill="rgb(31,55,77)" stroke="rgb(31,55,77)" stroke-width="1" opacity="1" d="M 146.5 0 L 304 0.5 L 146.5 1 L 146.5 0 Z " /><path fill="rgb(31,55,77)" stroke="rgb(31,55,77)" stroke-width="1" opacity="1" d="M 319.5 0 L 365 0.5 L 353 1.5 L 355 9.5 L 354 12.5 L 355.5 14 L 358.5 13 L 360 13.5 L 358 14.5 L 358 16.5 L 357 24 L 355 24.5 L 377 25.5 L 375.5 27 L 354 27 L 353 24.5 L 353 2 L 350.5 1 L 319.5 1 L 319.5 0 Z " /><path fill="rgb(31,55,77)" stroke="rgb(31,55,77)" stroke-width="1" opacity="1" d="M 52.5 1 L 74 1.5 L 52.5 2 L 52.5 1 Z " /><path fill="rgb(31,55,77)" stroke="rgb(31,55,77)" stroke-width="1" opacity="1" d="M 270.5 3 L 315.5 3 L 316 4.5 L 315.5 7 L 312 7 Q 313.3 4 309.5 5 L 309.5 6 L 311 6.5 L 280.5 7 L 280.5 6 L 284 5.5 L 279 5 Q 280.3 8 276.5 7 L 274 5.5 L 277 4.5 L 272.5 4 Q 269 6 273.5 8 L 314.5 8 L 316 9.5 Q 317.5 13.9 314.5 13 L 312 14 L 313 16.5 L 311 17 L 311 10.5 L 312 9.5 L 235 8.5 L 272 7.5 Q 270.3 5.3 265.5 6 L 263.5 6 L 257 4.5 L 263.5 4 L 265.5 4 L 270.5 3 Z " /><path fill="rgb(31,55,77)" stroke="rgb(31,55,77)" stroke-width="1" opacity="1" d="M 347.5 3 L 348.5 5 L 351 4 Q 352.1 6.7 349.5 6 L 349.5 7 L 351 7.5 L 351 23.5 L 350 23.5 L 350 12.5 L 347 12 L 347 9 L 350 8.5 L 347 7 L 347.5 3 Z " /><path fill="rgb(31,55,77)" stroke="rgb(31,55,77)" stroke-width="1" opacity="1" d="M 1.5 4 L 2.5 5 L 14.5 5 L 19 4 L 18.5 6 L 2.5 6 L 1.5 4 Z " /><path fill="rgb(31,55,77)" stroke="rgb(31,55,77)" stroke-width="1" opacity="1" d="M 53.5 4 L 55 4.5 L 53 8.5 L 55 19.5 L 54 20.5 L 54 34.5 L 55 36.5 L 54 37.5 L 54 46.5 L 54 50.5 L 55 60.5 L 54 62.5 Q 56.3 63.8 55 68.5 L 54 69.5 L 54 91.5 L 55 92.5 L 55 106.5 L 54 109.5 L 54 111.5 L 53.5 114 L 52 112.5 L 52 55.5 L 51 52.5 L 52 49.5 L 51 46.5 L 52 42.5 L 51 41.5 L 51 29.5 L 51 27.5 L 51 10.5 L 52 9.5 L 51 6.5 L 53.5 4 Z " /><path fill="rgb(31,55,77)" stroke="rgb(31,55,77)" stroke-width="1" opacity="1" d="M 65.5 4 L 68 4.5 L 63.5 6 L 63.5 5 L 65.5 4 Z " /><path fill="rgb(31,55,77)" stroke="rgb(31,55,77)" stroke-width="1" opacity="1" d="M 70.5 4 L 73 4.5 L 70.5 5 L 70.5 4 Z " /><path fill="rgb(31,55,77)" stroke="rgb(31,55,77)" stroke-width="1" opacity="1" d="M 75.5 4 L 79 4.5 L 75.5 5 L 75.5 4 Z " /><path fill="rgb(31,55,77)" stroke="rgb(31,55,77)" stroke-width="1" opacity="1" d="M 80.5 4 L 92 4.5 L 80.5 5 L 80.5 4 Z " /><path fill="rgb(31,55,77)" stroke="rgb(31,55,77)" stroke-width="1" opacity="1" d="M 96.5 4 L 100 4.5 L 96.5 5 L 96.5 4 Z " /><path fill="rgb(31,55,77)" stroke="rgb(31,55,77)" stroke-width="1" opacity="1" d="M 106.5 4 L 111 4.5 L 106.5 5 L 106.5 4 Z " /><path fill="rgb(31,55,77)" stroke="rgb(31,55,77)" stroke-width="1" opacity="1" d="M 168.5 4 L 178 4.5 L 168.5 5 L 168.5 4 Z " /><path fill="rgb(31,55,77)" stroke="rgb(31,55,77)" stroke-width="1" opacity="1" d="M 326.5 4 L 329 4.5 L 326.5 5 L 326.5 4 Z " /><path fill="rgb(31,55,77)" stroke="rgb(31,55,77)" stroke-width="1" opacity="1" d="M 329 6 L 340 6 L 340 11 L 335.5 10 L 332.5 11 L 329 8.5 L 329 6 Z " /><path fill="rgb(31,55,77)" stroke="rgb(31,55,77)" stroke-width="1" opacity="1" d="M 119.5 7 L 122 7.5 L 119.5 8 L 119.5 7 Z " /><path fill="rgb(31,55,77)" stroke="rgb(31,55,77)" stroke-width="1" opacity="1" d="M 124.5 7 L 141 7.5 L 124.5 8 L 124.5 7 Z " /><path fill="rgb(31,55,77)" stroke="rgb(31,55,77)" stroke-width="1" opacity="1" d="M 144.5 7 L 166 7.5 L 144.5 8 L 144.5 7 Z " /><path fill="rgb(31,55,77)" stroke="rgb(31,55,77)" stroke-width="1" opacity="1" d="M 342.5 7 L 345 8.5 L 344.5 11 L 344 8 L 342.5 7 Z " /><path fill="rgb(31,55,77)" stroke="rgb(31,55,77)" stroke-width="1" opacity="1" d="M 194.5 8 L 197 8.5 L 194.5 9 L 194.5 8 Z " /><path fill="rgb(31,55,77)" stroke="rgb(31,55,77)" stroke-width="1" opacity="1" d="M 206.5 8 L 210 8.5 L 206.5 9 L 206.5 8 Z " /><path fill="rgb(31,55,77)" stroke="rgb(31,55,77)" stroke-width="1" opacity="1" d="M 3.5 9 L 5 10.5 L 5.5 17 L 10 11.5 L 6 11 Q 4.9 8.3 7.5 9 L 8.5 10 L 26 10 L 25.5 19 L 24.5 17 L 23.5 21 L 23 17 L 17.5 13 L 11.5 12 L 7 15.5 L 4 26.5 L 5 31.5 Q 2.5 33 4 38.5 L 5.5 43 L 9.5 38 L 13 37 Q 11.9 34.3 14.5 35 L 14 33.5 Q 15.1 30.2 12.5 31 L 6 25.5 L 9.5 28 L 15.5 29 L 22.5 23 L 23.5 26 L 24.5 24 L 26 26.5 L 26 37.5 L 25 39.5 L 26 40.5 L 26 48.5 L 25 50.5 L 25 52.5 L 25 65.5 L 26 66.5 L 24 67 L 24 75.5 L 26 77.5 L 23 79.5 L 25 80 L 26 87 L 24 87.5 L 24 95.5 L 26 95.5 L 26 98 L 24 98.5 L 24 102.5 L 26 102.5 L 25.5 108 L 24.5 105 L 22.5 109 L 5.5 109 L 4.5 108 L 3 108.5 L 3 49.5 L 4 45.5 L 3 44.5 L 3 14.5 L 4 12.5 L 3.5 9 Z M 22 11 L 22 12 L 24 12 L 22 11 Z M 20 30 L 16 33 L 17 35 L 21 36 L 23 32 L 20 30 Z M 12 38 L 10 39 Q 5 42 5 51 L 4 54 L 4 69 L 6 69 L 12 61 L 12 59 Q 13 55 11 56 L 7 51 L 13 55 Q 20 55 22 50 L 22 47 L 21 49 L 20 49 L 21 44 L 21 46 L 22 46 L 21 42 Q 19 37 12 38 Z M 22 54 L 19 56 L 17 60 L 21 62 L 22 60 L 21 60 L 21 59 Q 20 55 23 56 Q 24 53 22 54 Z M 22 62 L 23 64 Q 24 61 22 62 Z M 12 64 L 10 65 L 4 75 L 5 94 L 5 92 L 6 92 L 6 105 L 5 107 L 22 106 Q 20 99 24 98 Q 21 96 22 90 L 6 90 Q 7 87 11 88 Q 12 91 14 87 L 13 86 L 13 85 Q 15 86 14 83 L 10 81 L 9 79 L 14 81 L 18 80 L 21 76 L 19 76 L 21 71 L 21 75 L 22 75 L 21 68 Q 19 63 12 64 Z M 23 80 L 18 82 L 20 86 Q 23 87 24 85 Q 25 81 23 80 Z M 19 107 L 19 108 L 23 108 L 19 107 Z " /><path fill="rgb(31,55,77)" stroke="rgb(31,55,77)" stroke-width="1" opacity="1" d="M 49.5 9 L 50 12.5 L 49 14.5 L 50 19.5 L 50 21.5 Q 51.3 26.2 49 27.5 L 50 28.5 L 50 70.5 L 49 71.5 L 48.5 101 L 48 49.5 Q 50.2 48.3 49 43.5 L 49 41.5 L 48 38.5 L 48 36.5 L 49 32.5 L 48 31.5 L 48 11.5 L 49.5 9 Z " /><path fill="rgb(31,55,77)" stroke="rgb(31,55,77)" stroke-width="1" opacity="1" d="M 56.5 9 L 57 111 L 59 111.5 L 58 114 L 60 114.5 L 58.5 115 L 56 114.5 L 57 111.5 L 56 110.5 L 56.5 9 Z " /><path fill="rgb(31,55,77)" stroke="rgb(31,55,77)" stroke-width="1" opacity="1" d="M 35.5 12 L 36.5 14 L 35.5 12 Z " /><path fill="rgb(31,55,77)" stroke="rgb(31,55,77)" stroke-width="1" opacity="1" d="M 11.5 14 L 13 14.5 L 9 17.5 L 8.5 19 L 8 17.5 L 11.5 14 Z " /><path fill="rgb(31,55,77)" stroke="rgb(31,55,77)" stroke-width="1" opacity="1" d="M 37.5 16 L 40 16.5 L 37.5 17 L 37.5 16 Z " /><path fill="rgb(31,55,77)" stroke="rgb(31,55,77)" stroke-width="1" opacity="1" d="M 315.5 16 L 317 17.5 L 317 28.5 L 316 28.5 L 316 17.5 L 315.5 16 Z " /><path fill="rgb(31,55,77)" stroke="rgb(31,55,77)" stroke-width="1" opacity="1" d="M 328.5 17 Q 336.8 17.8 340 23.5 L 337 24 Q 338.8 19.1 332.5 21 L 331.5 20 L 329 21.5 L 328.5 17 Z " /><path fill="rgb(31,55,77)" stroke="rgb(31,55,77)" stroke-width="1" opacity="1" d="M 337.5 17 L 343.5 21 L 344.5 18 L 345 21.5 L 343.5 23 L 338.5 18 L 337.5 17 Z " /><path fill="rgb(31,55,77)" stroke="rgb(31,55,77)" stroke-width="1" opacity="1" d="M 20.5 18 L 21 22.5 L 19 23.5 L 20.5 18 Z " /><path fill="rgb(31,55,77)" stroke="rgb(31,55,77)" stroke-width="1" opacity="1" d="M 25.5 20 L 26 22.5 L 25 22.5 L 25.5 20 Z " /><path fill="rgb(31,55,77)" stroke="rgb(31,55,77)" stroke-width="1" opacity="1" d="M 8.5 22 L 10.5 25 L 12 25.5 L 10.5 26 Q 6.9 24.9 8.5 22 Z " /><path fill="rgb(31,55,77)" stroke="rgb(31,55,77)" stroke-width="1" opacity="1" d="M 39.5 24 L 40.5 26 L 39.5 24 Z " /><path fill="rgb(31,55,77)" stroke="rgb(31,55,77)" stroke-width="1" opacity="1" d="M 318.5 25 Q 322.3 24 321 27 L 318.5 25 Z " /><path fill="rgb(31,55,77)" stroke="rgb(31,55,77)" stroke-width="1" opacity="1" d="M 318 28 L 321 28.5 L 319 29 L 318.5 31 L 318 28 Z " /><path fill="rgb(31,55,77)" stroke="rgb(31,55,77)" stroke-width="1" opacity="1" d="M 345.5 29 L 346.5 31 L 345.5 29 Z " /><path fill="rgb(31,55,77)" stroke="rgb(31,55,77)" stroke-width="1" opacity="1" d="M 363.5 29 L 369.5 30 L 370.5 29 L 377 29 L 376.5 31 L 358.5 31 L 358.5 32 Q 364 30.5 365.5 33 L 368.5 32 L 373 32.5 L 374 34.5 Q 371.5 36 373 41.5 L 375 45.5 L 374 48.5 L 375 54.5 Q 372.8 55.7 374 60.5 L 374 62.5 L 374 79.5 L 375 81.5 L 374 82.5 L 374 98.5 L 374 100.5 L 374 110.5 L 372.5 112 L 364 113.5 L 368 114.5 L 360 116.5 L 369 117.5 L 353 118 L 353 112.5 L 355 112 L 355 109.5 L 356 109.5 L 356.5 111 L 365.5 111 L 367.5 111 L 370.5 112 L 373 105.5 L 373 45.5 L 372 44.5 L 372 34 L 358.5 34 L 358 36 L 356.5 36 L 354.5 37 L 354 34.5 Q 353.3 32.3 355.5 33 L 355.5 32 Q 351.8 33 353 30 L 362.5 30 L 363.5 29 Z M 361 113 L 361 114 L 363 114 L 361 113 Z " /><path fill="rgb(31,55,77)" stroke="rgb(31,55,77)" stroke-width="1" opacity="1" d="M 28.5 34 L 29 38.5 L 28 38.5 L 28.5 34 Z " /><path fill="rgb(31,55,77)" stroke="rgb(31,55,77)" stroke-width="1" opacity="1" d="M 318.5 34 L 319 37.5 L 318 38.5 L 318 86.5 L 319 89.5 L 318.5 100 L 317 82.5 L 316 81.5 L 317 76.5 L 316 74.5 L 317 72.5 L 317 70.5 L 317 43.5 L 316 41.5 L 318.5 34 Z " /><path fill="rgb(31,55,77)" stroke="rgb(31,55,77)" stroke-width="1" opacity="1" d="M 350.5 34 Q 353.8 35.8 352 42.5 L 349.5 44 L 347 40.5 L 348 40.5 L 348.5 42 L 350 41.5 L 350.5 43 L 351 35.5 L 350 35.5 L 349.5 39 L 349 35.5 L 350.5 34 Z " /><path fill="rgb(31,55,77)" stroke="rgb(31,55,77)" stroke-width="1" opacity="1" d="M 45.5 36 L 46 43 Q 43 41.8 44 45.5 L 45 45.5 L 45.5 44 L 46 45.5 L 45 48.5 L 45 50.5 L 43.5 53 L 43 51.5 L 44 49.5 L 41 48.5 L 43 48.5 L 42 46.5 L 44 42.5 L 41 40.5 L 43 40.5 Q 42.3 37.9 45 39 L 45.5 36 Z " /><path fill="rgb(31,55,77)" stroke="rgb(31,55,77)" stroke-width="1" opacity="1" d="M 355 38 Q 358 36.8 357 40.5 L 358 43.5 L 356 42.5 Q 358.5 41 355 39.5 L 355 38 Z " /><path fill="rgb(31,55,77)" stroke="rgb(31,55,77)" stroke-width="1" opacity="1" d="M 376.5 40 L 377 108.5 L 376 108.5 L 376.5 40 Z " /><path fill="rgb(31,55,77)" stroke="rgb(31,55,77)" stroke-width="1" opacity="1" d="M 36.5 41 L 40 42.5 L 37.5 44 L 36.5 41 Z " /><path fill="rgb(31,55,77)" stroke="rgb(31,55,77)" stroke-width="1" opacity="1" d="M 360.5 44 L 360 45.5 L 360 87.5 L 359 88.5 L 359 103.5 L 361.5 107 L 363.5 106 L 364.5 108 L 357.5 107 L 355.5 108 L 354.5 106 L 356.5 107 L 356.5 105 Q 359.9 105.9 358 100.5 L 357 95.5 L 358 94.5 L 358 46.5 L 357.5 45 L 360.5 44 Z " /><path fill="rgb(31,55,77)" stroke="rgb(31,55,77)" stroke-width="1" opacity="1" d="M 368.5 44 L 368 45.5 L 367.5 55 L 367 45.5 L 368.5 44 Z " /><path fill="rgb(31,55,77)" stroke="rgb(31,55,77)" stroke-width="1" opacity="1" d="M 370.5 45 L 371 49.5 L 370 49.5 L 370.5 45 Z " /><path fill="rgb(31,55,77)" stroke="rgb(31,55,77)" stroke-width="1" opacity="1" d="M 10.5 50 L 11.5 52 L 10.5 50 Z " /><path fill="rgb(31,55,77)" stroke="rgb(31,55,77)" stroke-width="1" opacity="1" d="M 367.5 64 L 368 68.5 L 367 68.5 L 367.5 64 Z " /><path fill="rgb(31,55,77)" stroke="rgb(31,55,77)" stroke-width="1" opacity="1" d="M 37.5 68 L 40 69.5 L 36.5 71 L 35.5 69 L 37.5 68 Z " /><path fill="rgb(31,55,77)" stroke="rgb(31,55,77)" stroke-width="1" opacity="1" d="M 366.5 80 L 367 102.5 L 368 103.5 L 366 104 L 366.5 80 Z " /><path fill="rgb(31,55,77)" stroke="rgb(31,55,77)" stroke-width="1" opacity="1" d="M 37.5 89 L 38.5 91 Q 35.7 91.7 37.5 89 Z " /><path fill="rgb(31,55,77)" stroke="rgb(31,55,77)" stroke-width="1" opacity="1" d="M 11.5 91 L 12 93 L 10 93 Q 11.1 95.7 8.5 95 L 11.5 91 Z " /><path fill="rgb(31,55,77)" stroke="rgb(31,55,77)" stroke-width="1" opacity="1" d="M 20.5 92 L 21 100.5 L 21 102.5 Q 21.8 104.8 19.5 104 L 17.5 104 L 16 103.5 L 19 101.5 L 20.5 92 Z " /><path fill="rgb(31,55,77)" stroke="rgb(31,55,77)" stroke-width="1" opacity="1" d="M 8.5 100 L 11 104 L 8 103.5 L 8 101.5 L 8.5 100 Z " /><path fill="rgb(31,55,77)" stroke="rgb(31,55,77)" stroke-width="1" opacity="1" d="M 367.5 105 L 368.5 107 L 367.5 105 Z " /><path fill="rgb(31,55,77)" stroke="rgb(31,55,77)" stroke-width="1" opacity="1" d="M 352.5 106 L 353 108.5 Q 353.9 111.5 349.5 110 L 352.5 106 Z " /><path fill="rgb(31,55,77)" stroke="rgb(31,55,77)" stroke-width="1" opacity="1" d="M 2.5 112 L 12 112.5 L 6.5 114 L 2.5 113 L 1 113.5 L 2.5 112 Z " /><path fill="rgb(31,55,77)" stroke="rgb(31,55,77)" stroke-width="1" opacity="1" d="M 310.5 112 Q 313.1 111.3 312 114 L 314.5 114 L 316 118 L 57 117.5 L 312 116.5 L 310.5 112 Z " /><path fill="rgb(31,55,77)" stroke="rgb(31,55,77)" stroke-width="1" opacity="1" d="M 81.5 114 L 88 114.5 L 81.5 115 L 81.5 114 Z " /><path fill="rgb(31,55,77)" stroke="rgb(31,55,77)" stroke-width="1" opacity="1" d="M 112.5 114 L 119 114.5 L 112.5 115 L 112.5 114 Z " /><path fill="rgb(31,55,77)" stroke="rgb(31,55,77)" stroke-width="1" opacity="1" d="M 132.5 114 L 142 114.5 L 132.5 115 L 132.5 114 Z " /><path fill="rgb(31,55,77)" stroke="rgb(31,55,77)" stroke-width="1" opacity="1" d="M 144.5 114 L 224 114.5 L 200.5 116 L 198.5 115 L 196.5 116 L 195.5 115 L 144.5 115 L 144.5 114 Z " /><path fill="rgb(31,55,77)" stroke="rgb(31,55,77)" stroke-width="1" opacity="1" d="M 226.5 114 L 232 114.5 L 226.5 115 L 226.5 114 Z " /><path fill="rgb(31,55,77)" stroke="rgb(31,55,77)" stroke-width="1" opacity="1" d="M 234.5 114 L 238 114.5 L 234.5 115 L 234.5 114 Z " /><path fill="rgb(31,55,77)" stroke="rgb(31,55,77)" stroke-width="1" opacity="1" d="M 251.5 114 L 254 114.5 L 251.5 115 L 251.5 114 Z " /><path fill="rgb(31,55,77)" stroke="rgb(31,55,77)" stroke-width="1" opacity="1" d="M 261.5 114 L 264 114.5 L 261.5 115 L 261.5 114 Z " /><path fill="rgb(31,55,77)" stroke="rgb(31,55,77)" stroke-width="1" opacity="1" d="M 272.5 114 L 289 114.5 L 272.5 115 L 272.5 114 Z " /><path fill="rgb(31,55,77)" stroke="rgb(31,55,77)" stroke-width="1" opacity="1" d="M 347.5 114 L 350 114.5 L 349 116.5 Q 351.3 117.8 348.5 119 Q 346.3 119.8 347 117.5 L 347 115.5 L 347.5 114 Z " /><path fill="rgb(31,55,77)" stroke="rgb(31,55,77)" stroke-width="1" opacity="1" d="M 61.5 115 L 69 115.5 L 61.5 116 L 61.5 115 Z " /><path fill="rgb(31,55,77)" stroke="rgb(31,55,77)" stroke-width="1" opacity="1" d="M 320.5 116 L 321.5 118 Q 318.7 118.7 320.5 116 Z " /><path fill="rgb(31,55,77)" stroke="rgb(31,55,77)" stroke-width="1" opacity="1" d="M 341.5 117 L 344 117.5 L 341.5 118 L 341.5 117 Z " /><path fill="rgb(9,7,14)" stroke="rgb(9,7,14)" stroke-width="1" opacity="1" d="M 96.5 8 L 99 8.5 L 96.5 9 L 96.5 8 Z " /><path fill="rgb(9,7,14)" stroke="rgb(9,7,14)" stroke-width="1" opacity="1" d="M 151.5 8 L 161 8.5 L 151.5 9 L 151.5 8 Z " /><path fill="rgb(9,7,14)" stroke="rgb(9,7,14)" stroke-width="1" opacity="1" d="M 206.5 9 L 211 9.5 L 206.5 10 L 206.5 9 Z " /><path fill="rgb(9,7,14)" stroke="rgb(9,7,14)" stroke-width="1" opacity="1" d="M 299.5 9 L 305 9.5 L 299.5 10 L 299.5 9 Z " /><path fill="rgb(9,7,14)" stroke="rgb(9,7,14)" stroke-width="1" opacity="1" d="M 306.5 9 L 310 9.5 L 306.5 10 L 306.5 9 Z " /><path fill="rgb(9,7,14)" stroke="rgb(9,7,14)" stroke-width="1" opacity="1" d="M 33.5 11 L 34.5 13 L 33.5 11 Z " /><path fill="rgb(9,7,14)" stroke="rgb(9,7,14)" stroke-width="1" opacity="1" d="M 309.5 14 L 311 18.5 L 310 18.5 L 309.5 14 Z " /><path fill="rgb(9,7,14)" stroke="rgb(9,7,14)" stroke-width="1" opacity="1" d="M 303.5 23 Q 306.1 22.2 305 25.5 L 304 25.5 L 303.5 23 Z " /><path fill="rgb(9,7,14)" stroke="rgb(9,7,14)" stroke-width="1" opacity="1" d="M 315.5 29 L 316 80.5 L 315 80.5 L 315 73.5 L 313.5 73 L 312 73.5 L 315 72 L 315.5 29 Z " /><path fill="rgb(9,7,14)" stroke="rgb(9,7,14)" stroke-width="1" opacity="1" d="M 322.5 29 L 344.5 29 L 347 31.5 L 347 42.5 L 350 45.5 L 348.5 45 Q 346.3 45.8 347 43.5 L 346 42.5 L 346 32.5 L 343.5 30 L 323.5 30 L 321 31 L 321 35 Q 323.7 33.9 323 36.5 L 321 36.5 L 322 45.5 L 321 46.5 L 321 85.5 L 323 85.5 L 324 91 Q 321 92.3 322 88.5 L 321 88.5 L 322 112.5 L 320 113.5 L 320 40.5 L 319 39.5 L 319 37.5 Q 317.5 30.5 320.5 31 L 322.5 29 Z " /><path fill="rgb(9,7,14)" stroke="rgb(9,7,14)" stroke-width="1" opacity="1" d="M 37.5 36 L 40 36.5 L 37.5 37 L 37.5 36 Z " /><path fill="rgb(9,7,14)" stroke="rgb(9,7,14)" stroke-width="1" opacity="1" d="M 306 40 Q 309 39 308 42 Q 305.3 40.9 306 43.5 L 307.5 43 L 309 43 L 309 47 L 306 47 L 306 54.5 L 307.5 54 L 310 54 Q 309 57 312 56 L 312 59.5 L 313 60.5 L 310 63.5 Q 309.3 65.8 311.5 65 Q 314.3 66.3 312 67.5 Q 312.8 69.8 310.5 69 L 307.5 70 L 305.5 70 L 302 67.5 L 301 64 Q 297.7 65.1 299 61 L 304 60.5 L 303 56.5 Q 305.7 54.8 304 48.5 L 306 44.5 L 304 44.5 L 306 40 Z " /><path fill="rgb(9,7,14)" stroke="rgb(9,7,14)" stroke-width="1" opacity="1" d="M 351.5 45 L 356 46.5 L 352.5 47 L 351.5 45 Z " /><path fill="rgb(9,7,14)" stroke="rgb(9,7,14)" stroke-width="1" opacity="1" d="M 368 46 L 370 46.5 L 369 47.5 L 368.5 86 L 368 46 Z " /><path fill="rgb(9,7,14)" stroke="rgb(9,7,14)" stroke-width="1" opacity="1" d="M 290.5 56 Q 297.8 53.8 296 59 Q 290.8 59.2 290.5 56 Z " /><path fill="rgb(9,7,14)" stroke="rgb(9,7,14)" stroke-width="1" opacity="1" d="M 35.5 62 L 36.5 64 L 35.5 62 Z " /><path fill="rgb(9,7,14)" stroke="rgb(9,7,14)" stroke-width="1" opacity="1" d="M 36.5 67 L 39 67.5 L 36.5 68 L 36.5 67 Z " /><path fill="rgb(9,7,14)" stroke="rgb(9,7,14)" stroke-width="1" opacity="1" d="M 35.5 70 L 36.5 72 Q 33.7 72.7 35.5 70 Z " /><path fill="rgb(9,7,14)" stroke="rgb(9,7,14)" stroke-width="1" opacity="1" d="M 39.5 70 L 40 72 L 38 71.5 L 39.5 70 Z " /><path fill="rgb(9,7,14)" stroke="rgb(9,7,14)" stroke-width="1" opacity="1" d="M 38.5 78 L 39 80 L 37 79.5 L 38.5 78 Z " /><path fill="rgb(9,7,14)" stroke="rgb(9,7,14)" stroke-width="1" opacity="1" d="M 309.5 83 L 310 85.5 L 309 85.5 L 309.5 83 Z " /><path fill="rgb(9,7,14)" stroke="rgb(9,7,14)" stroke-width="1" opacity="1" d="M 315.5 83 L 316 85.5 L 315 85.5 L 315.5 83 Z " /><path fill="rgb(9,7,14)" stroke="rgb(9,7,14)" stroke-width="1" opacity="1" d="M 315.5 87 L 316 91.5 L 315 91.5 L 315.5 87 Z " /><path fill="rgb(9,7,14)" stroke="rgb(9,7,14)" stroke-width="1" opacity="1" d="M 303 88 L 306 89.5 L 304.5 92 L 303 88 Z " /><path fill="rgb(9,7,14)" stroke="rgb(9,7,14)" stroke-width="1" opacity="1" d="M 309 88 Q 312.7 86.7 311 92.5 L 310 95.5 L 311 97.5 L 310 97.5 L 309 88 Z " /><path fill="rgb(9,7,14)" stroke="rgb(9,7,14)" stroke-width="1" opacity="1" d="M 368.5 88 L 369 92.5 L 368 92.5 L 368.5 88 Z " /><path fill="rgb(9,7,14)" stroke="rgb(9,7,14)" stroke-width="1" opacity="1" d="M 35.5 90 L 36.5 92 Q 33.7 92.7 35.5 90 Z " /><path fill="rgb(9,7,14)" stroke="rgb(9,7,14)" stroke-width="1" opacity="1" d="M 34.5 98 L 36 98.5 L 33.5 100 L 34.5 98 Z " /><path fill="rgb(9,7,14)" stroke="rgb(9,7,14)" stroke-width="1" opacity="1" d="M 39.5 99 L 42 99.5 L 39.5 100 L 39.5 99 Z " /><path fill="rgb(9,7,14)" stroke="rgb(9,7,14)" stroke-width="1" opacity="1" d="M 346.5 104 L 345.5 106 L 346.5 104 Z " /><path fill="rgb(9,7,14)" stroke="rgb(9,7,14)" stroke-width="1" opacity="1" d="M 353.5 104 L 351.5 107 L 351 105 L 353.5 104 Z " /><path fill="rgb(9,7,14)" stroke="rgb(9,7,14)" stroke-width="1" opacity="1" d="M 35.5 106 L 36.5 108 Q 33.7 108.7 35.5 106 Z " /><path fill="rgb(9,7,14)" stroke="rgb(9,7,14)" stroke-width="1" opacity="1" d="M 349.5 106 L 350 107.5 L 346.5 113 L 346 111.5 L 349.5 106 Z " /><path fill="rgb(9,7,14)" stroke="rgb(9,7,14)" stroke-width="1" opacity="1" d="M 36.5 111 L 40 111.5 L 36.5 112 L 36.5 111 Z " /><path fill="rgb(9,7,14)" stroke="rgb(9,7,14)" stroke-width="1" opacity="1" d="M 49.5 112 L 50 114.5 L 49 114.5 L 49.5 112 Z " /><path fill="rgb(9,7,14)" stroke="rgb(9,7,14)" stroke-width="1" opacity="1" d="M 345.5 115 L 344.5 117 L 327 116.5 L 344.5 116 L 345.5 115 Z " /><path fill="rgb(230,232,233)" stroke="rgb(230,232,233)" stroke-width="1" opacity="1" d="M 46 0 Q 50.1 -1.7 49 2.5 L 50 6 L 48 6.5 L 48 115.5 Q 50.3 116.8 47.5 118 L 46 116.5 L 46 7.5 L 46 5.5 L 46 0 Z " /><path fill="rgb(230,232,233)" stroke="rgb(230,232,233)" stroke-width="1" opacity="1" d="M 82.5 2 L 85 2.5 L 82.5 3 L 82.5 2 Z " /><path fill="rgb(230,232,233)" stroke="rgb(230,232,233)" stroke-width="1" opacity="1" d="M 89.5 2 L 92 2.5 L 89.5 3 L 89.5 2 Z " /><path fill="rgb(230,232,233)" stroke="rgb(230,232,233)" stroke-width="1" opacity="1" d="M 350.5 2 Q 353.5 1.1 352 5.5 L 351 5.5 L 350.5 2 Z " /><path fill="rgb(230,232,233)" stroke="rgb(230,232,233)" stroke-width="1" opacity="1" d="M 2.5 6 L 25.5 6 L 28 7 L 28 110.5 L 27.5 111 L 14.5 111 L 13.5 112 L 3.5 112 L 1 111 L 0.5 119 L 0 48.5 L 1 45.5 L 0 44.5 L 0 29.5 L 0 27.5 L 0 18.5 L 1 17.5 L 0 13.5 Q 2.3 12.3 1 7.5 L 2.5 6 Z M 25 8 L 24 9 L 3 9 L 3 109 L 4 109 L 26 109 L 26 10 L 25 8 Z " /><path fill="rgb(230,232,233)" stroke="rgb(230,232,233)" stroke-width="1" opacity="1" d="M 36.5 6 L 43 6.5 L 39 8 L 39 11 Q 44.2 9.3 43 13 Q 35 14.8 33 9.5 L 36.5 6 Z M 37 8 L 35 10 L 37 10 L 37 8 Z " /><path fill="rgb(230,232,233)" stroke="rgb(230,232,233)" stroke-width="1" opacity="1" d="M 50.5 8 L 51 106.5 L 50 106.5 L 50.5 8 Z " /><path fill="rgb(230,232,233)" stroke="rgb(230,232,233)" stroke-width="1" opacity="1" d="M 34.5 14 Q 41.5 12.5 43 16.5 Q 43.8 20.3 41.5 21 L 40 21.5 Q 43.5 22 43 26.5 L 42 29 Q 39.3 30.1 40 27.5 L 41 24 Q 38 22.8 39 26.5 L 38 29 Q 34.2 30 33 27.5 Q 32 23 34.5 22 Q 37.3 23.3 35 24.5 Q 34 28.3 37 27 Q 36 22.8 39 21.5 L 33 21 Q 31.5 15.6 34.5 14 Z M 35 16 L 35 19 L 41 19 L 41 18 Q 40 15 35 16 Z " /><path fill="rgb(230,232,233)" stroke="rgb(230,232,233)" stroke-width="1" opacity="1" d="M 12.5 15 Q 18 14 19 17.5 L 20 21.5 L 13.5 26 L 9 22.5 Q 9.8 20.3 7.5 21 L 6 21.5 Q 5.3 17.8 7.5 17 L 8.5 20 L 10.5 16 L 12.5 15 Z " /><path fill="rgb(230,232,233)" stroke="rgb(230,232,233)" stroke-width="1" opacity="1" d="M 344 26 L 347.5 27 L 377 27 L 376.5 29 L 352.5 29 L 347.5 28 L 345.5 29 L 344 26 Z " /><path fill="rgb(230,232,233)" stroke="rgb(230,232,233)" stroke-width="1" opacity="1" d="M 41 33 L 43 33 L 43 39 L 36.5 40 L 33 38.5 L 39.5 38 L 41 36.5 L 41 33 Z " /><path fill="rgb(230,232,233)" stroke="rgb(230,232,233)" stroke-width="1" opacity="1" d="M 352.5 34 L 354 36.5 L 353 36.5 L 352.5 34 Z " /><path fill="rgb(230,232,233)" stroke="rgb(230,232,233)" stroke-width="1" opacity="1" d="M 369.5 35 L 371 35.5 L 371 44.5 L 372 45.5 L 372 110 Q 368.7 111.3 370 106.5 L 371 105.5 L 371 45.5 L 369 41.5 L 370 36.5 L 369.5 35 Z " /><path fill="rgb(230,232,233)" stroke="rgb(230,232,233)" stroke-width="1" opacity="1" d="M 13.5 40 L 18 41 L 20 47.5 Q 18.8 52.2 11.5 51 L 7.5 46 L 6 46.5 L 7.5 43 L 8.5 46 L 11.5 41 L 13.5 40 Z " /><path fill="rgb(230,232,233)" stroke="rgb(230,232,233)" stroke-width="1" opacity="1" d="M 33 41 L 36 41.5 L 35 46 Q 39.6 47.3 41 44.5 L 40 41 L 43 42.5 Q 43.8 46.3 41.5 47 L 36.5 48 L 33 45.5 L 33 41 Z " /><path fill="rgb(230,232,233)" stroke="rgb(230,232,233)" stroke-width="1" opacity="1" d="M 354.5 41 Q 357.5 40.1 356 44.5 L 353 46 Q 352 42.2 354.5 41 Z " /><path fill="rgb(230,232,233)" stroke="rgb(230,232,233)" stroke-width="1" opacity="1" d="M 361 45 L 366 45.5 L 366 97.5 Q 363.3 99.3 365 105.5 L 368 106.5 Q 369.9 112.8 365 111 L 365 106 L 361 105.5 L 361 45 Z " /><path fill="rgb(230,232,233)" stroke="rgb(230,232,233)" stroke-width="1" opacity="1" d="M 39.5 48 L 42 49 L 43 52.5 L 40 54.5 L 41 51.5 L 39 50.5 Q 39.5 54.5 36.5 55 L 33 53.5 Q 30.9 47.6 35.5 49 L 34 51.5 L 35.5 53 L 37 53 L 37 49 L 38.5 49 L 39.5 48 Z " /><path fill="rgb(230,232,233)" stroke="rgb(230,232,233)" stroke-width="1" opacity="1" d="M 34.5 59 Q 36.8 58.3 36 60.5 L 35 64 Q 39.6 65.3 41 62.5 L 40 59.5 L 43 61.5 Q 43.5 65.5 40.5 66 Q 34.5 67.5 33 64.5 Q 32 60 34.5 59 Z " /><path fill="rgb(230,232,233)" stroke="rgb(230,232,233)" stroke-width="1" opacity="1" d="M 8.5 67 L 8 68.5 L 8.5 71 L 11.5 67 Q 17.8 65.8 19 69.5 L 20 73.5 L 13.5 78 L 6 71.5 L 8.5 67 Z " /><path fill="rgb(230,232,233)" stroke="rgb(230,232,233)" stroke-width="1" opacity="1" d="M 40.5 67 Q 43 68 42 72.5 Q 40.5 75.5 34.5 74 L 32 70.5 L 33 68 L 36 68.5 Q 31.8 70.7 36.5 73 Q 40.5 73.5 41 70.5 Q 37.3 68.8 40.5 67 Z " /><path fill="rgb(230,232,233)" stroke="rgb(230,232,233)" stroke-width="1" opacity="1" d="M 33 75 Q 39.5 73.8 42 77.5 Q 42.5 81.5 39.5 82 L 33 81.5 L 40 80 L 38.5 77 Q 31.6 79 33 75 Z " /><path fill="rgb(230,232,233)" stroke="rgb(230,232,233)" stroke-width="1" opacity="1" d="M 34.5 87 Q 41.5 85.5 43 89.5 Q 43.8 93.3 41.5 94 L 33 94 L 33 88.5 L 34.5 87 Z M 36 89 Q 33 90 35 92 Q 34 95 40 93 L 41 91 Q 40 88 36 89 Z " /><path fill="rgb(230,232,233)" stroke="rgb(230,232,233)" stroke-width="1" opacity="1" d="M 7.5 90 L 8 104.5 L 6 103.5 L 6 91.5 L 7.5 90 Z " /><path fill="rgb(230,232,233)" stroke="rgb(230,232,233)" stroke-width="1" opacity="1" d="M 13.5 92 L 19 94.5 L 20 98.5 L 16.5 103 Q 10.7 103.8 9 100.5 Q 7.8 94.3 11.5 93 L 13.5 92 Z " /><path fill="rgb(230,232,233)" stroke="rgb(230,232,233)" stroke-width="1" opacity="1" d="M 33 95 L 38.5 96 L 42 95 L 40.5 98 L 38 99.5 Q 37.3 101.8 39.5 101 Q 40.8 98.8 42 101.5 L 33.5 102 L 35.5 99 L 38 97.5 L 33 97 L 33 95 Z " /><path fill="rgb(230,232,233)" stroke="rgb(230,232,233)" stroke-width="1" opacity="1" d="M 33 104 L 36 104.5 L 35 109 Q 39.7 110 41 106.5 L 39 105.5 Q 39.7 108.1 37 107 Q 35.2 102.1 41.5 104 L 43 107.5 Q 41.3 110.8 36.5 111 L 32 107.5 L 33 104 Z " /><path fill="rgb(230,232,233)" stroke="rgb(230,232,233)" stroke-width="1" opacity="1" d="M 50.5 110 L 53 114.5 L 50.5 115 L 50 112.5 L 50.5 110 Z " /><path fill="rgb(230,232,233)" stroke="rgb(230,232,233)" stroke-width="1" opacity="1" d="M 351.5 112 L 352.5 114 Q 349.7 114.7 351.5 112 Z " /><path fill="rgb(230,232,233)" stroke="rgb(230,232,233)" stroke-width="1" opacity="1" d="M 51.5 117 Q 54.1 116.3 53 119 L 50 118.5 L 51.5 117 Z " /><path fill="rgb(230,232,233)" stroke="rgb(230,232,233)" stroke-width="1" opacity="1" d="M 309.5 118 L 318 118.5 L 309.5 119 L 309.5 118 Z " /><path fill="rgb(11,11,17)" stroke="rgb(11,11,17)" stroke-width="1" opacity="1" d="M 99.5 8 L 102 8.5 L 99.5 9 L 99.5 8 Z " /><path fill="rgb(11,11,17)" stroke="rgb(11,11,17)" stroke-width="1" opacity="1" d="M 181.5 9 L 186 9.5 L 181.5 10 L 181.5 9 Z " /><path fill="rgb(11,11,17)" stroke="rgb(11,11,17)" stroke-width="1" opacity="1" d="M 201.5 9 L 206 9.5 L 201.5 10 L 201.5 9 Z " /><path fill="rgb(11,11,17)" stroke="rgb(11,11,17)" stroke-width="1" opacity="1" d="M 221.5 9 L 224 9.5 L 221.5 10 L 221.5 9 Z " /><path fill="rgb(11,11,17)" stroke="rgb(11,11,17)" stroke-width="1" opacity="1" d="M 241.5 9 L 247 9.5 L 241.5 10 L 241.5 9 Z " /><path fill="rgb(11,11,17)" stroke="rgb(11,11,17)" stroke-width="1" opacity="1" d="M 282.5 9 L 286 9.5 L 282.5 10 L 282.5 9 Z " /><path fill="rgb(11,11,17)" stroke="rgb(11,11,17)" stroke-width="1" opacity="1" d="M 288.5 9 L 292 9.5 L 288.5 10 L 288.5 9 Z " /><path fill="rgb(11,11,17)" stroke="rgb(11,11,17)" stroke-width="1" opacity="1" d="M 304.5 20 L 307 24.5 L 305 25 Q 306.1 22.3 303.5 23 L 303.5 25 Q 300.3 23.3 304 21.5 L 304.5 20 Z " /><path fill="rgb(11,11,17)" stroke="rgb(11,11,17)" stroke-width="1" opacity="1" d="M 57.5 21 L 58 23.5 L 57 23.5 L 57.5 21 Z " /><path fill="rgb(11,11,17)" stroke="rgb(11,11,17)" stroke-width="1" opacity="1" d="M 328.5 30 L 329 34.5 L 328 34.5 L 328.5 30 Z " /><path fill="rgb(11,11,17)" stroke="rgb(11,11,17)" stroke-width="1" opacity="1" d="M 321.5 33 L 324 34 L 323.5 36 L 321.5 33 Z " /><path fill="rgb(11,11,17)" stroke="rgb(11,11,17)" stroke-width="1" opacity="1" d="M 296 35 L 303.5 35 L 304.5 36 L 306.5 35 Q 307.6 37.8 311 37 L 312 41.5 Q 309 42.8 310 47 L 312 47.5 L 310 48 L 309 51.5 L 311 55.5 L 310 55.5 Q 310.8 52.9 307.5 54 L 306 54.5 L 305.5 47 L 304 48.5 L 303 59.5 L 303.5 61 Q 297.2 59.1 299 64 Q 301.7 62.9 301 65.5 L 304.5 70 L 306.5 69 L 309 70 Q 307.9 72.7 310.5 72 L 310.5 73 Q 306.1 74.5 307 71.5 L 305.5 72 L 303.5 73 L 300.5 67 L 297 64.5 L 298 62.5 L 294.5 61 Q 286.4 61.1 284 55.5 L 284 48 L 280 48 L 280 56 L 277 56 L 277 48.5 L 280 48 L 280 40 L 288 40 L 288 37 L 295.5 37 L 296 35 Z M 306 40 Q 305 43 308 42 Q 309 39 306 40 Z M 306 42 L 304 45 L 306 44 L 306 42 Z M 308 43 L 306 45 Q 305 49 309 47 L 309 43 L 308 43 Z M 291 56 Q 291 59 296 59 Q 298 54 291 56 Z " /><path fill="rgb(11,11,17)" stroke="rgb(11,11,17)" stroke-width="1" opacity="1" d="M 96.5 39 L 100 40.5 L 100 48 L 93 48 L 93 40 L 95.5 40 L 96.5 39 Z " /><path fill="rgb(11,11,17)" stroke="rgb(11,11,17)" stroke-width="1" opacity="1" d="M 57.5 40 L 58 46.5 L 57 46.5 L 57.5 40 Z " /><path fill="rgb(11,11,17)" stroke="rgb(11,11,17)" stroke-width="1" opacity="1" d="M 345.5 41 L 346 43.5 L 345 43.5 L 345.5 41 Z " /><path fill="rgb(11,11,17)" stroke="rgb(11,11,17)" stroke-width="1" opacity="1" d="M 57.5 48 L 58 52.5 L 57 52.5 L 57.5 48 Z " /><path fill="rgb(11,11,17)" stroke="rgb(11,11,17)" stroke-width="1" opacity="1" d="M 224 51 L 232 51 L 232.5 56 L 242.5 56 L 240 59.5 Q 240.5 64 239.5 64 L 224 64 L 224 51 Z " /><path fill="rgb(11,11,17)" stroke="rgb(11,11,17)" stroke-width="1" opacity="1" d="M 208 53 L 216 53 L 216 57 L 208 56 L 208 53 Z " /><path fill="rgb(11,11,17)" stroke="rgb(11,11,17)" stroke-width="1" opacity="1" d="M 57.5 56 L 58 75.5 L 57 75.5 L 57.5 56 Z " /><path fill="rgb(11,11,17)" stroke="rgb(11,11,17)" stroke-width="1" opacity="1" d="M 99.5 56 L 106 56 L 106 62 L 112 62 L 112 64 L 106.5 64 L 106 62 L 104.5 62 L 100 58.5 L 99.5 56 Z " /><path fill="rgb(11,11,17)" stroke="rgb(11,11,17)" stroke-width="1" opacity="1" d="M 311.5 62 L 312 64 L 310 63.5 L 311.5 62 Z " /><path fill="rgb(11,11,17)" stroke="rgb(11,11,17)" stroke-width="1" opacity="1" d="M 305 75 L 310 75 L 310 77.5 Q 308.8 80 305 79 L 305 75 Z " /><path fill="rgb(11,11,17)" stroke="rgb(11,11,17)" stroke-width="1" opacity="1" d="M 305 80 Q 308 78.8 307 82.5 L 309 82.5 L 309 95.5 L 307 99.5 L 308 104 Q 305.3 102.9 306 105.5 L 305 105.5 L 307 95.5 L 305 91.5 L 306 89.5 L 303 88 L 304 94.5 L 303 94.5 L 299 89.5 L 300.5 90 Q 303.1 90.7 302 88 L 299 87.5 L 302 87 L 303 82 Q 306 83 305 80 Z " /><path fill="rgb(11,11,17)" stroke="rgb(11,11,17)" stroke-width="1" opacity="1" d="M 325.5 82 L 326 84.5 L 325 84.5 L 325.5 82 Z " /><path fill="rgb(11,11,17)" stroke="rgb(11,11,17)" stroke-width="1" opacity="1" d="M 326 96 Q 329 94.8 328 98.5 L 326.5 101 L 326 96 Z " /><path fill="rgb(11,11,17)" stroke="rgb(11,11,17)" stroke-width="1" opacity="1" d="M 347.5 106 L 347 107.5 L 346 109.5 L 346.5 111 L 345 108.5 L 347.5 106 Z " /><path fill="rgb(11,11,17)" stroke="rgb(11,11,17)" stroke-width="1" opacity="1" d="M 327.5 115 L 326.5 117 L 327.5 115 Z " /><path fill="rgb(15,14,20)" stroke="rgb(15,14,20)" stroke-width="1" opacity="1" d="M 29.5 7 L 30 50.5 L 29 50.5 L 29.5 7 Z " /><path fill="rgb(15,14,20)" stroke="rgb(15,14,20)" stroke-width="1" opacity="1" d="M 57.5 8 L 59.5 8 L 75.5 8 L 77.5 9 L 80.5 8 L 82.5 8 L 90.5 9 L 94.5 8 Q 96.3 10.8 102.5 9 L 103.5 8 L 118.5 8 L 120.5 9 Q 122 6.5 127.5 8 Q 129.3 10.8 135.5 9 L 137.5 9 L 143.5 8 L 144.5 9 L 165.5 9 L 166.5 8 L 193.5 8 L 196.5 9 L 197.5 8 L 205.5 8 L 205.5 9 L 197 9.5 L 225.5 10 L 225.5 9 L 210 8.5 L 234.5 8 L 234.5 9 L 230 9.5 L 235.5 10 L 237.5 9 L 238.5 10 L 287.5 10 L 288.5 11 L 296.5 9 L 296.5 11 L 306.5 10 L 309.5 11 L 312 9.5 L 311 10.5 L 311 17 L 316 17 L 316 23.5 L 315 25.5 L 316 27.5 L 314 31.5 Q 315 35.3 312 34 L 311 24.5 L 311 22.5 L 309.5 13 L 305 13.5 L 305.5 16 L 308.5 15 L 309 17.5 L 308.5 19 L 307 18.5 L 306.5 21 L 303.5 16 L 300.5 17 L 300 15 Q 305.2 16.7 304 13 L 290.5 16 L 289.5 15 L 270.5 15 L 266.5 16 L 264.5 15 L 262.5 15 Q 256.5 13.5 255 16.5 L 255 23.5 L 259 29.5 L 259 33.5 L 257 39 L 240 38 L 240 32 L 237 32 Q 238.1 29.3 235.5 30 L 229 28 Q 231.1 23 230 14 Q 224.7 12.8 225.5 16 L 213.5 16 L 213.5 15 Q 216.1 15.7 215 13 L 208.5 14 L 207 13.5 L 205.5 16 L 203 15.5 Q 205.3 14.3 202.5 13 L 200 13.5 L 202 14.5 L 200 15 L 200 19.5 Q 197 18.5 198 23.5 L 197 25.5 L 198 30 L 192.5 29 Q 190.8 31.8 184.5 30 L 178.5 26 L 144.5 26 Q 142.8 28.8 141 24.5 Q 143.8 22.8 142 16.5 Q 141.3 14.3 137.5 15 L 135.5 15 L 115.5 15 L 112.5 14 L 112.5 15 L 114 15.5 L 112.5 16 Q 111.2 13.7 106.5 15 L 105.5 16 L 94.5 16 L 92.5 14 L 87.5 13 L 86.5 15 L 88 15.5 L 82 16.5 L 85 18 L 83.5 21 L 79.5 23 L 72.5 23 L 68.5 18 L 64 16 Q 65 20.3 62 19.5 L 62 23.5 L 62 25.5 L 64 32.5 L 64 41.5 Q 61.5 43 65 44.5 L 68.5 50 L 72 51 L 75 55.5 L 72 56 L 70.5 60 L 68 61.5 L 66 64.5 L 66 71.5 Q 63 72.8 64 77 L 67.5 76 Q 70.7 80.3 79.5 79 L 80.5 78 L 88 78 L 88.5 80 L 95.5 80 L 103.5 84 L 104.5 83 L 113.5 83 L 117 80.5 L 117 78.5 L 118 72 Q 121.1 70 128 71 L 128.5 69 L 135.5 69 L 137.5 69 L 144.5 71 L 151.5 71 L 153.5 70 Q 154.8 72.3 159.5 71 L 160.5 70 L 168 70 Q 166.8 67 170.5 68 L 173 62 L 184 61 L 184.5 59 L 193.5 59 L 207.5 64 L 210.5 63 L 210.5 64 L 209 64.5 L 214.5 65 L 224.5 69 L 232 69 L 231.5 71 L 224.5 71 L 224.5 72 L 236 72 L 236 80 L 240 80.5 L 240 96 L 235 96.5 L 239.5 99 L 240.5 98 L 264 98 L 264.5 102 L 279.5 102 L 280 105 L 287.5 105 L 296.5 103 L 296 104.5 Q 295.3 106.8 297.5 106 Q 298.8 108.3 303.5 107 L 305.5 107 L 308 108.5 Q 306.9 111.8 309.5 111 L 311 109.5 L 312 102.5 L 311 100.5 L 312 99.5 L 312 86.5 L 313 84.5 L 312 81.5 L 315 80 L 315.5 96 L 316.5 93 L 317 110.5 L 316 110.5 L 315.5 104 L 315 112 L 317 112.5 L 315.5 115 L 312 114 Q 313.1 111.3 310.5 112 L 311 113.5 Q 311.9 116.5 307.5 115 L 305.5 114 L 304.5 115 L 289.5 115 L 288.5 114 L 272 113 L 271.5 115 L 264.5 115 L 261.5 114 L 259.5 114 L 256.5 115 L 254 114.5 L 253.5 113 L 249.5 115 L 249.5 114 L 251 113.5 L 248.5 113 Q 247.3 116.3 241.5 115 L 239.5 115 L 234.5 114 L 232.5 115 Q 231.3 112.7 226.5 114 L 224.5 115 L 223.5 114 L 195.5 114 L 191.5 113 L 190.5 114 L 144.5 114 L 142.5 115 L 141.5 114 L 132.5 114 L 127.5 115 L 125.5 114 L 123.5 115 L 121.5 115 L 112.5 114 L 111.5 115 L 101.5 115 L 99.5 114 L 98.5 115 L 88.5 115 Q 87 112.5 81.5 114 L 80.5 115 L 60.5 115 L 58.5 114 L 57 114.5 L 59 111.5 L 57 111 L 57 90.5 L 58 87.5 Q 55.5 86 57 80.5 L 57 78.5 L 58 76.5 L 58 55.5 L 57 53.5 L 58 52.5 L 58 36.5 L 57 32.5 Q 59.3 31.3 58 26.5 L 57 24.5 L 58 21.5 L 57 20.5 L 57.5 8 Z M 178 9 L 178 10 L 186 10 L 178 9 Z M 189 9 L 189 10 L 191 10 L 189 9 Z M 281 11 L 281 12 L 288 12 L 281 11 Z M 180 13 L 176 15 L 188 16 L 187 18 Q 182 17 184 22 L 198 20 Q 197 16 200 15 L 197 13 L 197 15 L 196 13 L 194 14 L 192 13 Q 186 12 185 14 L 180 13 Z M 220 13 Q 219 15 224 15 Q 225 11 220 13 Z M 232 13 L 233 15 L 240 15 L 240 13 L 232 13 Z M 265 13 L 265 14 L 272 14 L 265 13 Z M 281 13 L 281 14 L 293 14 L 281 13 Z M 97 14 L 97 15 L 99 15 L 97 14 Z M 162 14 L 162 15 L 164 15 L 162 14 Z M 149 16 Q 148 19 152 18 Q 153 15 149 16 Z M 62 29 L 62 35 L 63 35 L 62 29 Z M 62 41 L 61 44 L 62 44 L 62 41 Z M 72 54 L 70 56 L 72 56 L 72 54 Z M 61 59 L 59 65 L 59 72 L 61 72 L 61 59 Z M 62 64 L 62 72 L 61 73 L 64 73 L 64 65 L 62 64 Z M 61 75 L 62 78 L 61 80 L 63 82 Q 65 81 63 80 Q 65 74 61 75 Z M 182 77 L 181 78 Q 178 77 179 80 L 175 80 L 172 89 L 172 96 L 168 96 L 168 100 L 176 100 L 177 106 Q 178 108 182 107 Q 185 105 184 99 L 208 98 Q 209 94 204 96 L 204 88 L 201 88 L 206 85 Q 208 86 207 83 L 200 79 L 185 79 L 184 77 L 182 77 Z M 62 83 Q 61 86 64 85 Q 65 82 62 83 Z M 217 96 L 217 97 L 224 97 L 217 96 Z M 316 99 L 315 102 L 316 102 L 316 99 Z M 137 101 L 137 102 L 160 102 L 137 101 Z M 72 102 L 73 104 L 88 104 L 88 102 L 72 102 Z M 104 102 L 105 104 L 120 104 L 120 102 L 104 102 Z M 217 103 L 217 104 L 224 104 L 217 103 Z M 64 104 L 63 107 L 64 107 L 64 104 Z M 89 104 L 88 105 Q 82 103 83 107 Q 89 108 90 105 L 89 104 Z M 102 104 L 102 105 L 104 105 L 102 104 Z M 230 104 L 230 105 L 232 105 L 230 104 Z M 105 105 L 105 106 L 112 106 L 105 105 Z M 175 105 L 176 107 Q 177 104 175 105 Z M 195 106 L 195 108 L 208 108 L 195 106 Z M 223 106 L 221 107 L 221 108 L 232 108 L 223 106 Z M 257 108 L 257 109 L 264 109 L 257 108 Z M 309 112 L 307 114 L 309 114 L 309 112 Z " /><path fill="rgb(15,14,20)" stroke="rgb(15,14,20)" stroke-width="1" opacity="1" d="M 8.5 9 L 14 9.5 L 8.5 10 L 8.5 9 Z " /><path fill="rgb(15,14,20)" stroke="rgb(15,14,20)" stroke-width="1" opacity="1" d="M 15.5 9 L 18 9.5 L 15.5 10 L 15.5 9 Z " /><path fill="rgb(15,14,20)" stroke="rgb(15,14,20)" stroke-width="1" opacity="1" d="M 19.5 9 L 22 9.5 L 19.5 10 L 19.5 9 Z " /><path fill="rgb(15,14,20)" stroke="rgb(15,14,20)" stroke-width="1" opacity="1" d="M 39.5 9 L 40.5 11 L 39.5 9 Z " /><path fill="rgb(15,14,20)" stroke="rgb(15,14,20)" stroke-width="1" opacity="1" d="M 45.5 11 L 46 13.5 L 45 13.5 L 45.5 11 Z " /><path fill="rgb(15,14,20)" stroke="rgb(15,14,20)" stroke-width="1" opacity="1" d="M 45.5 15 L 45 16.5 L 46 20.5 L 44 19.5 Q 43.3 15.8 45.5 15 Z " /><path fill="rgb(15,14,20)" stroke="rgb(15,14,20)" stroke-width="1" opacity="1" d="M 208.5 15 L 211 15.5 L 208.5 16 L 208.5 15 Z " /><path fill="rgb(15,14,20)" stroke="rgb(15,14,20)" stroke-width="1" opacity="1" d="M 36.5 16 L 35.5 18 L 36.5 16 Z " /><path fill="rgb(15,14,20)" stroke="rgb(15,14,20)" stroke-width="1" opacity="1" d="M 93 18 L 111.5 18 L 112.5 20 L 120 20 L 120 24 L 112 25 Q 113.9 30.6 109 29 Q 110.8 24.1 104.5 26 L 99.5 27 L 96.5 25 Q 95.3 27.2 94 24.5 L 96 24 L 94.5 20 Q 91.9 20.7 93 18 Z " /><path fill="rgb(15,14,20)" stroke="rgb(15,14,20)" stroke-width="1" opacity="1" d="M 24.5 21 L 25 23.5 L 24 23.5 L 24.5 21 Z " /><path fill="rgb(15,14,20)" stroke="rgb(15,14,20)" stroke-width="1" opacity="1" d="M 31.5 24 L 32 26.5 L 31 26.5 L 31.5 24 Z " /><path fill="rgb(15,14,20)" stroke="rgb(15,14,20)" stroke-width="1" opacity="1" d="M 44.5 24 L 46 27.5 L 44 26.5 L 44.5 24 Z " /><path fill="rgb(15,14,20)" stroke="rgb(15,14,20)" stroke-width="1" opacity="1" d="M 323.5 28 L 344 28.5 L 323.5 29 L 323.5 28 Z " /><path fill="rgb(15,14,20)" stroke="rgb(15,14,20)" stroke-width="1" opacity="1" d="M 136.5 29 L 138.5 32 Q 134.1 33.1 136.5 29 Z " /><path fill="rgb(15,14,20)" stroke="rgb(15,14,20)" stroke-width="1" opacity="1" d="M 319 29 L 322 29.5 L 319 31 L 318.5 34 L 318 31.5 L 319 29 Z " /><path fill="rgb(15,14,20)" stroke="rgb(15,14,20)" stroke-width="1" opacity="1" d="M 353.5 29 L 363 29.5 L 353.5 30 L 353.5 29 Z " /><path fill="rgb(15,14,20)" stroke="rgb(15,14,20)" stroke-width="1" opacity="1" d="M 366.5 29 L 370 29.5 L 366.5 30 L 366.5 29 Z " /><path fill="rgb(15,14,20)" stroke="rgb(15,14,20)" stroke-width="1" opacity="1" d="M 176.5 30 L 180 31.5 L 176 32 L 176.5 30 Z " /><path fill="rgb(15,14,20)" stroke="rgb(15,14,20)" stroke-width="1" opacity="1" d="M 326.5 30 L 327.5 32 L 324 31.5 L 326.5 30 Z " /><path fill="rgb(15,14,20)" stroke="rgb(15,14,20)" stroke-width="1" opacity="1" d="M 336.5 30 L 340 30.5 L 338 31.5 L 341 32 Q 339.8 29 343.5 30 L 346 34.5 L 346 36.5 L 345 40 Q 342.3 38.9 343 41.5 L 342.5 43 L 345.5 45 Q 347.3 42.2 349 46.5 L 344 50 L 344 54 L 342.5 54 L 339.5 56 L 336 54 Q 337.5 50.3 334.5 51 L 332.5 48 L 337 46 Q 338.1 43.3 335.5 44 L 330 40.5 L 338.5 39 L 340 37.5 L 339 35.5 Q 341.3 34.3 338.5 33 L 334.5 35 L 332.5 35 L 330 33.5 Q 328.9 30.2 331.5 31 L 334.5 32 L 336.5 30 Z " /><path fill="rgb(15,14,20)" stroke="rgb(15,14,20)" stroke-width="1" opacity="1" d="M 316.5 32 L 317 40.5 L 316 40.5 L 316.5 32 Z " /><path fill="rgb(15,14,20)" stroke="rgb(15,14,20)" stroke-width="1" opacity="1" d="M 44 34 Q 46.7 32.9 46 35.5 L 45 39 Q 42.3 40.1 43 37.5 L 44 34 Z " /><path fill="rgb(15,14,20)" stroke="rgb(15,14,20)" stroke-width="1" opacity="1" d="M 350.5 35 L 352 44.5 L 351 47 L 353.5 48 L 356 47 L 356.5 43 L 358 46.5 L 358 94.5 L 357 99.5 L 358 105 L 356 105.5 L 356.5 107 L 354 105.5 L 352 102.5 L 353 100.5 L 352 97 Q 349 98 350 95 Q 352.7 96.1 352 93.5 L 353 91.5 L 352 86.5 L 353 84.5 L 352 83.5 L 352 50.5 L 347 42.5 L 349.5 44 L 351 43.5 L 349 39.5 L 350.5 35 Z " /><path fill="rgb(15,14,20)" stroke="rgb(15,14,20)" stroke-width="1" opacity="1" d="M 312.5 36 L 315 39.5 L 312 41 L 312.5 36 Z " /><path fill="rgb(15,14,20)" stroke="rgb(15,14,20)" stroke-width="1" opacity="1" d="M 318.5 38 L 319 64.5 L 320 65.5 L 320 113.5 L 319 113.5 L 319 89.5 L 318 88.5 L 318 86.5 L 318.5 38 Z " /><path fill="rgb(15,14,20)" stroke="rgb(15,14,20)" stroke-width="1" opacity="1" d="M 36.5 40 L 39 41.5 L 37.5 42 L 36.5 40 Z " /><path fill="rgb(15,14,20)" stroke="rgb(15,14,20)" stroke-width="1" opacity="1" d="M 43.5 42 L 46 43.5 L 45 45.5 L 46 48.5 L 45 48.5 L 43.5 42 Z " /><path fill="rgb(15,14,20)" stroke="rgb(15,14,20)" stroke-width="1" opacity="1" d="M 35 43 L 37 43.5 L 35 44.5 L 35 43 Z " /><path fill="rgb(15,14,20)" stroke="rgb(15,14,20)" stroke-width="1" opacity="1" d="M 313.5 43 Q 316.9 42.1 315 47.5 L 313 46.5 L 312 44.5 L 313.5 43 Z " /><path fill="rgb(15,14,20)" stroke="rgb(15,14,20)" stroke-width="1" opacity="1" d="M 316.5 43 L 317 70.5 L 316 70.5 L 316.5 43 Z " /><path fill="rgb(15,14,20)" stroke="rgb(15,14,20)" stroke-width="1" opacity="1" d="M 41.5 47 Q 43.8 46.3 43 48.5 L 44 50.5 L 43 50.5 L 41.5 47 Z " /><path fill="rgb(15,14,20)" stroke="rgb(15,14,20)" stroke-width="1" opacity="1" d="M 369.5 47 L 370 105.5 L 368 104.5 L 367 102.5 L 367 69.5 L 368 69.5 L 368.5 102 L 369.5 47 Z " /><path fill="rgb(15,14,20)" stroke="rgb(15,14,20)" stroke-width="1" opacity="1" d="M 312 49 Q 314.7 47.9 314 50.5 L 312 51.5 L 312 49 Z " /><path fill="rgb(15,14,20)" stroke="rgb(15,14,20)" stroke-width="1" opacity="1" d="M 31.5 50 Q 31.3 54.7 34.5 56 L 36 56.5 L 34.5 57 Q 29.6 55.6 31.5 50 Z " /><path fill="rgb(15,14,20)" stroke="rgb(15,14,20)" stroke-width="1" opacity="1" d="M 45.5 50 L 46 52.5 L 45.5 55 L 43.5 54 L 42 54.5 L 45.5 50 Z " /><path fill="rgb(15,14,20)" stroke="rgb(15,14,20)" stroke-width="1" opacity="1" d="M 367.5 55 L 368 63.5 L 367 63.5 L 367.5 55 Z " /><path fill="rgb(15,14,20)" stroke="rgb(15,14,20)" stroke-width="1" opacity="1" d="M 314.5 56 L 315 59.5 L 313 58.5 L 314.5 56 Z " /><path fill="rgb(15,14,20)" stroke="rgb(15,14,20)" stroke-width="1" opacity="1" d="M 33.5 58 L 32.5 60 L 33.5 58 Z " /><path fill="rgb(15,14,20)" stroke="rgb(15,14,20)" stroke-width="1" opacity="1" d="M 41.5 58 L 43.5 61 L 41.5 58 Z " /><path fill="rgb(15,14,20)" stroke="rgb(15,14,20)" stroke-width="1" opacity="1" d="M 38.5 60 L 39.5 62 L 38.5 60 Z " /><path fill="rgb(15,14,20)" stroke="rgb(15,14,20)" stroke-width="1" opacity="1" d="M 314.5 61 L 315 71 L 312.5 72 L 312 68.5 L 314 65 Q 310.7 66.1 312 62 L 314.5 61 Z " /><path fill="rgb(15,14,20)" stroke="rgb(15,14,20)" stroke-width="1" opacity="1" d="M 45.5 62 L 46 64.5 L 45 64.5 L 45.5 62 Z " /><path fill="rgb(15,14,20)" stroke="rgb(15,14,20)" stroke-width="1" opacity="1" d="M 42.5 65 L 43 67.5 L 42 67.5 L 42.5 65 Z " /><path fill="rgb(15,14,20)" stroke="rgb(15,14,20)" stroke-width="1" opacity="1" d="M 24.5 67 L 25 70.5 L 24 70.5 L 24.5 67 Z " /><path fill="rgb(15,14,20)" stroke="rgb(15,14,20)" stroke-width="1" opacity="1" d="M 43 69 Q 45.7 67.9 45 70.5 L 43 71.5 L 43 69 Z " /><path fill="rgb(15,14,20)" stroke="rgb(15,14,20)" stroke-width="1" opacity="1" d="M 49.5 71 L 50 92.5 L 49 92.5 L 49.5 71 Z " /><path fill="rgb(15,14,20)" stroke="rgb(15,14,20)" stroke-width="1" opacity="1" d="M 296 72 L 298 72.5 L 296.5 76 L 296 72 Z " /><path fill="rgb(15,14,20)" stroke="rgb(15,14,20)" stroke-width="1" opacity="1" d="M 42.5 73 L 42 74.5 L 41.5 77 L 41 74.5 L 42.5 73 Z " /><path fill="rgb(15,14,20)" stroke="rgb(15,14,20)" stroke-width="1" opacity="1" d="M 313.5 73 L 315 75.5 L 313.5 78 L 312 74.5 L 313.5 73 Z " /><path fill="rgb(15,14,20)" stroke="rgb(15,14,20)" stroke-width="1" opacity="1" d="M 316.5 76 L 317 80.5 L 316 80.5 L 316.5 76 Z " /><path fill="rgb(15,14,20)" stroke="rgb(15,14,20)" stroke-width="1" opacity="1" d="M 34.5 78 L 36.5 79 L 38 78.5 Q 36.8 81.3 35.5 79 L 33.5 80 L 34.5 78 Z " /><path fill="rgb(15,14,20)" stroke="rgb(15,14,20)" stroke-width="1" opacity="1" d="M 43.5 78 Q 45.8 77.3 45 79.5 L 43.5 78 Z " /><path fill="rgb(15,14,20)" stroke="rgb(15,14,20)" stroke-width="1" opacity="1" d="M 40.5 82 L 39.5 84 L 38 83.5 L 40.5 82 Z " /><path fill="rgb(15,14,20)" stroke="rgb(15,14,20)" stroke-width="1" opacity="1" d="M 316.5 82 L 317 91.5 L 316 91.5 L 316.5 82 Z " /><path fill="rgb(15,14,20)" stroke="rgb(15,14,20)" stroke-width="1" opacity="1" d="M 35.5 85 L 40 85.5 L 34.5 87 L 35.5 85 Z " /><path fill="rgb(15,14,20)" stroke="rgb(15,14,20)" stroke-width="1" opacity="1" d="M 36.5 89 L 38 91.5 L 36 90.5 L 36.5 89 Z " /><path fill="rgb(15,14,20)" stroke="rgb(15,14,20)" stroke-width="1" opacity="1" d="M 43.5 89 L 46 92.5 L 44 92.5 L 43.5 94 L 43.5 89 Z " /><path fill="rgb(15,14,20)" stroke="rgb(15,14,20)" stroke-width="1" opacity="1" d="M 29.5 93 L 30 95.5 L 29 95.5 L 29.5 93 Z " /><path fill="rgb(15,14,20)" stroke="rgb(15,14,20)" stroke-width="1" opacity="1" d="M 49.5 96 L 50 110.5 L 49 110.5 L 49.5 96 Z " /><path fill="rgb(15,14,20)" stroke="rgb(15,14,20)" stroke-width="1" opacity="1" d="M 322 96 Q 325.3 94.7 324 99.5 L 322.5 102 L 322 96 Z " /><path fill="rgb(15,14,20)" stroke="rgb(15,14,20)" stroke-width="1" opacity="1" d="M 24.5 98 L 25 102.5 L 24 102.5 L 24.5 98 Z " /><path fill="rgb(15,14,20)" stroke="rgb(15,14,20)" stroke-width="1" opacity="1" d="M 29.5 99 L 30 104.5 L 29 104.5 L 29.5 99 Z " /><path fill="rgb(15,14,20)" stroke="rgb(15,14,20)" stroke-width="1" opacity="1" d="M 32.5 103 L 33 104.5 L 31.5 107 L 31 105.5 L 32.5 103 Z " /><path fill="rgb(15,14,20)" stroke="rgb(15,14,20)" stroke-width="1" opacity="1" d="M 18.5 107 Q 23.3 106.3 25 108.5 L 23.5 109 L 18.5 108 L 18.5 107 Z " /><path fill="rgb(15,14,20)" stroke="rgb(15,14,20)" stroke-width="1" opacity="1" d="M 350.5 107 L 348.5 110 Q 347.3 107.8 346 110.5 L 347 115.5 Q 345.7 118.3 344.5 116 Q 339.8 116.8 338 114.5 L 345 111.5 L 347.5 108 Q 349 110.5 350.5 107 Z " /><path fill="rgb(15,14,20)" stroke="rgb(15,14,20)" stroke-width="1" opacity="1" d="M 326.5 109 L 327 113.5 L 322 116.5 L 341 117.5 L 322.5 118 L 320.5 115 L 322 115.5 L 323.5 112 L 323.5 114 L 326 112.5 L 325 110.5 L 326.5 109 Z " /><path fill="rgb(15,14,20)" stroke="rgb(15,14,20)" stroke-width="1" opacity="1" d="M 33.5 110 L 36 111.5 L 34.5 112 L 33.5 110 Z " /><path fill="rgb(15,14,20)" stroke="rgb(15,14,20)" stroke-width="1" opacity="1" d="M 336.5 111 Q 339.8 109.9 339 112.5 L 337.5 112 L 336.5 111 Z " /><path fill="rgb(15,14,20)" stroke="rgb(15,14,20)" stroke-width="1" opacity="1" d="M 15.5 112 L 24 112.5 L 15.5 113 L 15.5 112 Z " /><path fill="rgb(15,14,20)" stroke="rgb(15,14,20)" stroke-width="1" opacity="1" d="M 45.5 112 L 46 114.5 L 45 114.5 L 45.5 112 Z " /><path fill="rgb(15,14,20)" stroke="rgb(15,14,20)" stroke-width="1" opacity="1" d="M 49.5 115 Q 52.5 116.5 49.5 118 L 49.5 115 Z " /><path fill="rgb(14,13,19)" stroke="rgb(14,13,19)" stroke-width="1" opacity="1" d="M 130.5 8 L 134 8.5 L 130.5 9 L 130.5 8 Z " /><path fill="rgb(14,13,19)" stroke="rgb(14,13,19)" stroke-width="1" opacity="1" d="M 177.5 9 L 181 9.5 L 177.5 10 L 177.5 9 Z " /><path fill="rgb(14,13,19)" stroke="rgb(14,13,19)" stroke-width="1" opacity="1" d="M 212.5 9 L 215 9.5 L 212.5 10 L 212.5 9 Z " /><path fill="rgb(14,13,19)" stroke="rgb(14,13,19)" stroke-width="1" opacity="1" d="M 216.5 9 L 221 9.5 L 216.5 10 L 216.5 9 Z " /><path fill="rgb(14,13,19)" stroke="rgb(14,13,19)" stroke-width="1" opacity="1" d="M 233.5 9 L 236 9.5 L 233.5 10 L 233.5 9 Z " /><path fill="rgb(14,13,19)" stroke="rgb(14,13,19)" stroke-width="1" opacity="1" d="M 238.5 9 L 241 9.5 L 238.5 10 L 238.5 9 Z " /><path fill="rgb(14,13,19)" stroke="rgb(14,13,19)" stroke-width="1" opacity="1" d="M 247.5 9 L 256 9.5 L 247.5 10 L 247.5 9 Z " /><path fill="rgb(14,13,19)" stroke="rgb(14,13,19)" stroke-width="1" opacity="1" d="M 258.5 9 L 262 9.5 L 258.5 10 L 258.5 9 Z " /><path fill="rgb(14,13,19)" stroke="rgb(14,13,19)" stroke-width="1" opacity="1" d="M 297.5 9 L 298.5 11 L 296 10.5 L 297.5 9 Z " /><path fill="rgb(14,13,19)" stroke="rgb(14,13,19)" stroke-width="1" opacity="1" d="M 310.5 9 L 309.5 11 L 310.5 9 Z " /><path fill="rgb(14,13,19)" stroke="rgb(14,13,19)" stroke-width="1" opacity="1" d="M 288.5 10 L 287.5 12 L 280 11.5 L 288.5 10 Z " /><path fill="rgb(14,13,19)" stroke="rgb(14,13,19)" stroke-width="1" opacity="1" d="M 70.5 13 L 73 14.5 L 71.5 14 L 70.5 13 Z " /><path fill="rgb(14,13,19)" stroke="rgb(14,13,19)" stroke-width="1" opacity="1" d="M 87.5 13 L 92.5 14 L 94.5 16 L 105.5 16 L 105.5 15 L 104 14.5 L 105.5 14 Q 106.7 16.3 111.5 15 L 114.5 14 L 115.5 15 L 135.5 15 L 136.5 16 L 140.5 15 Q 143.8 16.8 142 23.5 Q 139.3 25.3 143.5 27 L 144.5 26 L 178.5 26 L 184.5 30 L 191.5 30 L 193.5 29 L 198 30 L 197 24.5 L 198 20 L 184 22 Q 181.9 16.8 186.5 18 L 188 15.5 L 186.5 16 L 176 14.5 L 183.5 13 L 185.5 13 Q 193.3 11.7 195.5 16 L 197 13 L 199.5 14 L 202.5 13 L 203.5 16 L 207 14.5 L 207.5 13 L 208 16 L 211 15.5 L 210.5 14 L 215 13 Q 216.1 15.7 213.5 15 L 213.5 16 L 225.5 16 Q 224.7 12.8 230 14 Q 231.1 23 229 28 L 237 30 Q 235.9 33.3 240 32 L 240 38 L 247.5 38 L 248.5 39 L 257 39 L 259 33.5 L 259 29.5 Q 253.6 26.4 255 16.5 Q 256.5 13.5 262.5 15 L 264.5 15 L 266 15.5 L 264 16 Q 261.9 21.2 266.5 20 Q 270.4 23.8 269 32 L 272 32 L 272 40 L 268 40 L 268 41.5 L 264.5 43 Q 262.8 40.3 256.5 42 L 248 45 L 247.5 43 L 240 43 L 240 40 L 234 40 L 234 31 L 224.5 31 L 223.5 32 L 208 32 L 207.5 34 L 200 34 Q 201 31 198 32 Q 199.8 41 194.5 44 L 189 45 L 188 47.5 L 191.5 53 L 197.5 58 L 204 59 Q 202.9 61.7 205.5 61 L 207.5 62 L 209.5 61 L 214.5 62 L 224.5 67 L 239.5 67 L 240.5 68 L 248 68 L 248 66 L 255.5 66 L 256.5 64 L 263.5 64 L 265 63.5 L 264 66 L 271.5 66 L 272 69 L 280 69 L 280.5 67 L 288 67 L 288.5 69 L 297.5 69 L 301 74 L 298 75.5 L 299 79.5 L 296 86.5 L 296.5 88 L 295 88.5 L 295 96 L 297 95.5 L 296.5 94 Q 298.8 93.3 298 95.5 L 301 104 L 304.5 103 L 304 104.5 L 304 107 L 298.5 107 L 296 106 L 295.5 104 L 288.5 104 L 287.5 105 L 280 105 L 279.5 102 L 264 102 L 263.5 98 L 240.5 98 L 238.5 99 L 235 96.5 L 240 96 L 240 80.5 L 236 80 L 236 72 L 224.5 72 L 224.5 71 L 231.5 71 L 232 69 L 224.5 69 L 214.5 65 L 209 64.5 L 211 63.5 L 208.5 63 L 206.5 63 L 193.5 59 L 184 59 L 183.5 61 L 176.5 61 L 173 62 L 170.5 68 L 168 68 L 167.5 70 L 160.5 70 Q 159.3 72.3 154.5 71 L 152.5 70 Q 150.8 72.8 144.5 71 L 136.5 68 L 135.5 69 L 128 69 L 127.5 71 L 120.5 71 L 118 72 L 116 79.5 Q 118.3 80.8 115.5 82 Q 112 84.5 104.5 83 L 103.5 84 L 95.5 80 L 88 80 L 87.5 78 L 80.5 78 Q 78.8 80.7 72.5 79 L 67.5 76 L 64 77 Q 66.1 71.8 61.5 73 L 59 72 L 60.5 59 L 61.5 72 L 62.5 64 L 63 71.5 L 64.5 73 Q 67.8 71.3 66 64.5 L 69.5 60 L 72 58.5 Q 73.1 55.2 70.5 56 L 71.5 54 L 72 56 L 75 55.5 L 72 51 L 66 47.5 L 63 42.5 L 64 41.5 L 64 32.5 L 61 24.5 L 63 24.5 L 62 19 L 64 19 Q 62.5 15.3 65.5 16 L 70 19.5 L 72.5 23 L 79.5 23 L 85 19.5 Q 85.8 17.3 83.5 18 L 82.5 16 L 90.5 18 L 93 16.5 L 87.5 14 L 86 14.5 L 87.5 13 Z M 201 14 L 198 17 Q 197 21 200 20 Q 199 16 202 15 L 201 14 Z M 192 15 L 192 16 L 194 16 L 192 15 Z M 93 18 Q 92 21 95 20 L 96 24 L 94 25 Q 95 27 97 25 L 100 27 L 105 26 Q 111 24 109 29 Q 114 31 112 25 L 119 24 L 120 25 L 120 20 L 113 20 L 112 18 L 93 18 Z M 89 20 L 82 23 Q 79 24 80 29 L 83 32 L 80 32 L 80 40 L 73 40 L 72 42 L 71 42 L 72 40 L 72 35 L 70 36 L 68 39 Q 64 40 67 42 L 67 48 L 77 48 L 80 51 L 81 50 L 84 57 L 84 64 Q 78 62 80 68 L 76 70 L 76 72 L 72 72 L 72 74 Q 69 73 70 76 L 72 77 L 88 77 L 89 78 L 96 78 L 96 80 L 102 82 L 112 82 Q 111 79 114 80 L 115 74 L 117 72 Q 119 73 118 70 L 120 68 L 128 68 L 129 67 Q 138 65 142 69 L 155 69 L 157 68 L 156 65 L 158 64 L 158 57 L 156 56 L 156 54 L 148 48 Q 143 46 144 50 L 142 49 L 144 48 L 144 42 L 137 42 L 136 40 L 128 40 L 128 31 L 127 30 L 128 28 Q 129 23 124 25 L 123 28 L 116 28 Q 116 31 112 30 L 112 40 L 105 32 L 102 33 L 100 31 L 101 29 L 97 31 L 96 29 Q 92 30 91 27 L 92 22 L 89 20 Z M 65 22 Q 63 25 66 24 L 65 22 Z M 224 24 L 224 26 L 226 25 L 224 24 Z M 137 29 Q 134 33 139 32 L 137 29 Z M 177 30 L 176 32 L 180 32 L 177 30 Z M 173 56 Q 172 59 176 58 Q 177 55 173 56 Z M 296 72 L 297 76 L 298 73 L 296 72 Z " /><path fill="rgb(14,13,19)" stroke="rgb(14,13,19)" stroke-width="1" opacity="1" d="M 219.5 13 Q 225.3 11.3 224 15 Q 218.8 15.3 219.5 13 Z " /><path fill="rgb(14,13,19)" stroke="rgb(14,13,19)" stroke-width="1" opacity="1" d="M 238.5 13 Q 241.1 12.3 240 15 L 232 14.5 L 238.5 13 Z " /><path fill="rgb(14,13,19)" stroke="rgb(14,13,19)" stroke-width="1" opacity="1" d="M 264.5 13 L 272 13.5 L 264.5 14 L 264.5 13 Z " /><path fill="rgb(14,13,19)" stroke="rgb(14,13,19)" stroke-width="1" opacity="1" d="M 280.5 13 L 293 13.5 L 280.5 14 L 280.5 13 Z " /><path fill="rgb(14,13,19)" stroke="rgb(14,13,19)" stroke-width="1" opacity="1" d="M 300.5 13 Q 305.3 11.7 304 15 L 296 14.5 L 300.5 13 Z " /><path fill="rgb(14,13,19)" stroke="rgb(14,13,19)" stroke-width="1" opacity="1" d="M 305.5 13 L 309 14.5 L 305.5 16 L 305.5 13 Z " /><path fill="rgb(14,13,19)" stroke="rgb(14,13,19)" stroke-width="1" opacity="1" d="M 96.5 14 L 99 14.5 L 96.5 15 L 96.5 14 Z " /><path fill="rgb(14,13,19)" stroke="rgb(14,13,19)" stroke-width="1" opacity="1" d="M 161.5 14 L 164 14.5 L 161.5 15 L 161.5 14 Z " /><path fill="rgb(14,13,19)" stroke="rgb(14,13,19)" stroke-width="1" opacity="1" d="M 270.5 15 L 276 15.5 L 270.5 16 L 270.5 15 Z " /><path fill="rgb(14,13,19)" stroke="rgb(14,13,19)" stroke-width="1" opacity="1" d="M 288.5 15 L 292 16 L 290.5 20 Q 285.3 21.3 284 18.5 Q 282.7 14.3 287.5 16 L 288.5 15 Z " /><path fill="rgb(14,13,19)" stroke="rgb(14,13,19)" stroke-width="1" opacity="1" d="M 149 16 Q 153.1 14.7 152 18 Q 147.9 19.3 149 16 Z " /><path fill="rgb(14,13,19)" stroke="rgb(14,13,19)" stroke-width="1" opacity="1" d="M 298.5 16 L 300.5 17 L 303.5 16 L 305 19.5 L 304 19.5 Q 304.9 16.1 299.5 18 L 298.5 16 Z " /><path fill="rgb(14,13,19)" stroke="rgb(14,13,19)" stroke-width="1" opacity="1" d="M 307.5 18 Q 309.8 18.8 309 22.5 L 306 24 L 307.5 18 Z " /><path fill="rgb(14,13,19)" stroke="rgb(14,13,19)" stroke-width="1" opacity="1" d="M 296.5 20 L 297 22.5 L 296 22.5 L 296.5 20 Z " /><path fill="rgb(14,13,19)" stroke="rgb(14,13,19)" stroke-width="1" opacity="1" d="M 300 21 L 302 21.5 L 300 22.5 L 300 21 Z " /><path fill="rgb(14,13,19)" stroke="rgb(14,13,19)" stroke-width="1" opacity="1" d="M 311.5 23 L 312.5 25 L 311.5 23 Z " /><path fill="rgb(14,13,19)" stroke="rgb(14,13,19)" stroke-width="1" opacity="1" d="M 296 27 L 298 27.5 L 296 28.5 L 296 27 Z " /><path fill="rgb(14,13,19)" stroke="rgb(14,13,19)" stroke-width="1" opacity="1" d="M 305.5 27 L 307 31 Q 310 29.8 309 33.5 L 312.5 35 L 314 34.5 L 315 38.5 L 313 37.5 L 312.5 36 L 311.5 40 L 311 37 L 307 35.5 L 307 32 Q 304.3 33.1 305 30.5 L 304 28.5 L 305.5 27 Z " /><path fill="rgb(14,13,19)" stroke="rgb(14,13,19)" stroke-width="1" opacity="1" d="M 315.5 28 L 314.5 30 L 315.5 28 Z " /><path fill="rgb(14,13,19)" stroke="rgb(14,13,19)" stroke-width="1" opacity="1" d="M 61.5 29 L 62 32.5 L 61 32.5 L 61.5 29 Z " /><path fill="rgb(14,13,19)" stroke="rgb(14,13,19)" stroke-width="1" opacity="1" d="M 330.5 30 L 333 31.5 L 331.5 31 Q 329.3 30.3 330 32.5 L 329 32.5 L 330.5 30 Z " /><path fill="rgb(14,13,19)" stroke="rgb(14,13,19)" stroke-width="1" opacity="1" d="M 335.5 30 L 334.5 32 L 335.5 30 Z " /><path fill="rgb(14,13,19)" stroke="rgb(14,13,19)" stroke-width="1" opacity="1" d="M 88 32 L 96 32 L 96 40 L 88 40 L 88 32 Z " /><path fill="rgb(14,13,19)" stroke="rgb(14,13,19)" stroke-width="1" opacity="1" d="M 288 32 L 300 32.5 L 296.5 35 L 295.5 34 L 288 34 L 288 32 Z " /><path fill="rgb(14,13,19)" stroke="rgb(14,13,19)" stroke-width="1" opacity="1" d="M 326 32 Q 329 31 328 34 Q 325 35 326 32 Z " /><path fill="rgb(14,13,19)" stroke="rgb(14,13,19)" stroke-width="1" opacity="1" d="M 304.5 33 L 305 35.5 L 304 35.5 L 304.5 33 Z " /><path fill="rgb(14,13,19)" stroke="rgb(14,13,19)" stroke-width="1" opacity="1" d="M 337.5 33 L 340 34.5 Q 338.8 37.3 337.5 35 L 336 34.5 L 337.5 33 Z " /><path fill="rgb(14,13,19)" stroke="rgb(14,13,19)" stroke-width="1" opacity="1" d="M 330.5 34 L 332.5 35 L 334 34.5 L 334 40 L 331.5 40 L 330 37.5 L 331 35.5 L 330.5 34 Z " /><path fill="rgb(14,13,19)" stroke="rgb(14,13,19)" stroke-width="1" opacity="1" d="M 339.5 37 L 338.5 39 L 339.5 37 Z " /><path fill="rgb(14,13,19)" stroke="rgb(14,13,19)" stroke-width="1" opacity="1" d="M 345.5 38 L 346 41 L 344 41.5 L 345.5 44 L 347 43.5 L 346.5 46 L 342 42.5 L 343 40 Q 345.8 41 345.5 38 Z " /><path fill="rgb(14,13,19)" stroke="rgb(14,13,19)" stroke-width="1" opacity="1" d="M 61.5 39 Q 64.3 40.3 62 41.5 L 61.5 44 L 61 41.5 L 61.5 39 Z " /><path fill="rgb(14,13,19)" stroke="rgb(14,13,19)" stroke-width="1" opacity="1" d="M 120 40 L 126 40 L 126 47.5 L 128 48.5 L 128 64 L 112 64 L 112 48 L 120 48 L 120 40 Z " /><path fill="rgb(14,13,19)" stroke="rgb(14,13,19)" stroke-width="1" opacity="1" d="M 275 40 L 279 40.5 L 275.5 45 L 275 40 Z " /><path fill="rgb(14,13,19)" stroke="rgb(14,13,19)" stroke-width="1" opacity="1" d="M 314.5 40 L 314.5 43 Q 311.5 41.5 314.5 40 Z " /><path fill="rgb(14,13,19)" stroke="rgb(14,13,19)" stroke-width="1" opacity="1" d="M 330.5 41 L 333 42.5 L 330 43 L 330.5 41 Z " /><path fill="rgb(14,13,19)" stroke="rgb(14,13,19)" stroke-width="1" opacity="1" d="M 311.5 42 L 313 45.5 L 311 46 L 311.5 42 Z " /><path fill="rgb(14,13,19)" stroke="rgb(14,13,19)" stroke-width="1" opacity="1" d="M 334.5 43 L 337 44 L 336.5 46 L 334.5 43 Z " /><path fill="rgb(14,13,19)" stroke="rgb(14,13,19)" stroke-width="1" opacity="1" d="M 334.5 46 L 333.5 48 L 334.5 46 Z " /><path fill="rgb(14,13,19)" stroke="rgb(14,13,19)" stroke-width="1" opacity="1" d="M 344.5 46 L 345.5 48 L 344.5 46 Z " /><path fill="rgb(14,13,19)" stroke="rgb(14,13,19)" stroke-width="1" opacity="1" d="M 312.5 48 L 315 48 L 315 53 Q 309.4 55.2 311 49.5 L 312.5 48 Z M 312 49 L 312 52 L 314 51 Q 315 48 312 49 Z " /><path fill="rgb(14,13,19)" stroke="rgb(14,13,19)" stroke-width="1" opacity="1" d="M 330 48 L 336 51 Q 334.5 54.7 337.5 54 L 340.5 56 L 344 54 L 345 51.5 L 344.5 50 L 349.5 48 Q 352.3 49.3 350 50.5 Q 348.9 53.8 351.5 53 L 350.5 56 Q 353.1 55.3 352 58 Q 349 59 350 56 L 346 56 L 344 60 L 336.5 60 L 333 59 L 331.5 56 Q 325.4 54.8 326 57.5 L 324 58.5 L 324 56 Q 326.7 57.1 326 54.5 L 327.5 55 L 333 54 L 330 48 Z " /><path fill="rgb(14,13,19)" stroke="rgb(14,13,19)" stroke-width="1" opacity="1" d="M 312.5 55 L 313.5 57 Q 310.7 57.7 312.5 55 Z " /><path fill="rgb(14,13,19)" stroke="rgb(14,13,19)" stroke-width="1" opacity="1" d="M 208.5 57 L 214 58.5 L 208 59 L 208.5 57 Z " /><path fill="rgb(14,13,19)" stroke="rgb(14,13,19)" stroke-width="1" opacity="1" d="M 319.5 60 L 320 64.5 L 319 64.5 L 319.5 60 Z " /><path fill="rgb(14,13,19)" stroke="rgb(14,13,19)" stroke-width="1" opacity="1" d="M 346 62 L 350 62 Q 349 65 352 64 L 352 80 L 350 79.5 L 350 64 Q 344.8 65.7 346 62 Z " /><path fill="rgb(14,13,19)" stroke="rgb(14,13,19)" stroke-width="1" opacity="1" d="M 61 75 Q 64.3 73.7 63 78.5 L 61 79.5 L 62 77.5 L 61 75 Z " /><path fill="rgb(14,13,19)" stroke="rgb(14,13,19)" stroke-width="1" opacity="1" d="M 181.5 77 L 184 77 L 184.5 79 L 199.5 79 L 207 83 Q 208.1 85.7 205.5 85 L 201 87.5 L 204 88 L 204 96 Q 209.2 94.3 208 98 L 184 99 Q 185 104.7 181.5 107 Q 177.8 107.8 177 105.5 L 176 100 L 168 100 L 168 96 L 172 96 L 172 88.5 L 175 80 L 179 80 Q 177.9 77.3 180.5 78 L 181.5 77 Z " /><path fill="rgb(14,13,19)" stroke="rgb(14,13,19)" stroke-width="1" opacity="1" d="M 312.5 79 L 313 80.5 L 312 83.5 L 312.5 85 Q 309.1 85.9 311 80.5 L 312.5 79 Z " /><path fill="rgb(14,13,19)" stroke="rgb(14,13,19)" stroke-width="1" opacity="1" d="M 62 83 Q 65 82 64 85 Q 61 86 62 83 Z " /><path fill="rgb(14,13,19)" stroke="rgb(14,13,19)" stroke-width="1" opacity="1" d="M 49.5 93 L 50 95.5 L 49 95.5 L 49.5 93 Z " /><path fill="rgb(14,13,19)" stroke="rgb(14,13,19)" stroke-width="1" opacity="1" d="M 348 94 L 352 94.5 L 350 95 Q 348.9 97.7 351.5 97 L 353 96.5 Q 351.8 99 348 98 L 348 94 Z " /><path fill="rgb(14,13,19)" stroke="rgb(14,13,19)" stroke-width="1" opacity="1" d="M 216.5 96 L 224 96.5 L 216.5 97 L 216.5 96 Z " /><path fill="rgb(14,13,19)" stroke="rgb(14,13,19)" stroke-width="1" opacity="1" d="M 327.5 99 L 328.5 105 L 330.5 102 Q 334.9 100.5 334 103.5 L 337.5 109 L 341.5 107 L 342 109 L 344.5 108 L 345 110.5 L 344 113 L 340 112 Q 341.1 114.7 338.5 114 L 336.5 115 L 334.5 115 L 331.5 116 L 331 114 Q 327.3 115.5 328 112.5 L 326.5 109 L 325 112 Q 321.3 113.3 323 107.5 L 324 107.5 L 324.5 110 L 327.5 99 Z M 332 109 L 329 110 L 331 113 L 336 113 L 335 110 L 332 109 Z M 337 111 L 338 112 L 339 113 Q 340 110 337 111 Z " /><path fill="rgb(14,13,19)" stroke="rgb(14,13,19)" stroke-width="1" opacity="1" d="M 136.5 101 L 160 101.5 L 136.5 102 L 136.5 101 Z " /><path fill="rgb(14,13,19)" stroke="rgb(14,13,19)" stroke-width="1" opacity="1" d="M 72 102 L 87.5 102 L 88 104 L 89.5 104 L 87.5 107 Q 81.7 108.7 83 105 L 88 104.5 L 72 104 L 72 102 Z " /><path fill="rgb(14,13,19)" stroke="rgb(14,13,19)" stroke-width="1" opacity="1" d="M 104 102 L 119.5 102 L 120 104 L 104 104.5 L 112 105.5 L 104.5 106 L 101 104.5 L 104 104 L 104 102 Z " /><path fill="rgb(14,13,19)" stroke="rgb(14,13,19)" stroke-width="1" opacity="1" d="M 311.5 102 L 312 104.5 L 311 104.5 L 311.5 102 Z " /><path fill="rgb(14,13,19)" stroke="rgb(14,13,19)" stroke-width="1" opacity="1" d="M 216.5 103 L 224 103.5 L 216.5 104 L 216.5 103 Z " /><path fill="rgb(14,13,19)" stroke="rgb(14,13,19)" stroke-width="1" opacity="1" d="M 229.5 104 L 232 104.5 L 229.5 105 L 229.5 104 Z " /><path fill="rgb(14,13,19)" stroke="rgb(14,13,19)" stroke-width="1" opacity="1" d="M 347.5 104 L 349 104.5 L 347.5 108 L 346 105.5 L 347.5 104 Z " /><path fill="rgb(14,13,19)" stroke="rgb(14,13,19)" stroke-width="1" opacity="1" d="M 174.5 105 Q 176.8 104.3 176 106.5 L 174.5 105 Z " /><path fill="rgb(14,13,19)" stroke="rgb(14,13,19)" stroke-width="1" opacity="1" d="M 195 106 L 208 107.5 L 195 108 L 195 106 Z " /><path fill="rgb(14,13,19)" stroke="rgb(14,13,19)" stroke-width="1" opacity="1" d="M 222.5 106 L 232 107.5 L 220.5 108 L 220.5 107 L 222.5 106 Z " /><path fill="rgb(14,13,19)" stroke="rgb(14,13,19)" stroke-width="1" opacity="1" d="M 305.5 106 Q 308.8 104.9 308 107.5 L 306.5 110 L 306 108.5 L 306.5 107 L 305.5 106 Z " /><path fill="rgb(14,13,19)" stroke="rgb(14,13,19)" stroke-width="1" opacity="1" d="M 256.5 108 L 264 108.5 L 256.5 109 L 256.5 108 Z " /><path fill="rgb(14,13,19)" stroke="rgb(14,13,19)" stroke-width="1" opacity="1" d="M 191.5 113 L 195 113.5 L 191.5 114 L 191.5 113 Z " /><path fill="rgb(14,13,19)" stroke="rgb(14,13,19)" stroke-width="1" opacity="1" d="M 272.5 113 L 278 113.5 L 272.5 114 L 272.5 113 Z " /><path fill="rgb(14,13,19)" stroke="rgb(14,13,19)" stroke-width="1" opacity="1" d="M 326.5 114 L 327 116 L 323.5 117 L 324.5 115 L 326.5 114 Z " /></svg>